<?xml version="1.0" encoding="UTF-8" standalone="no"?>
<!-- Created with Inkscape (http://www.inkscape.org/) -->

<svg
   xmlns:dc="http://purl.org/dc/elements/1.1/"
   xmlns:cc="http://creativecommons.org/ns#"
   xmlns:rdf="http://www.w3.org/1999/02/22-rdf-syntax-ns#"
   xmlns:svg="http://www.w3.org/2000/svg"
   xmlns="http://www.w3.org/2000/svg"
   xmlns:xlink="http://www.w3.org/1999/xlink"
   xmlns:sodipodi="http://sodipodi.sourceforge.net/DTD/sodipodi-0.dtd"
   xmlns:inkscape="http://www.inkscape.org/namespaces/inkscape"
   width="146.24319mm"
   height="24.852571mm"
   viewBox="0 0 146.2432 24.852571"
   version="1.1"
   id="svg26792"
   inkscape:version="0.92.3 (2405546, 2018-03-11)"
   sodipodi:docname="avalon-logotype.svg">
  <defs
     id="defs26786" />
  <sodipodi:namedview
     id="base"
     pagecolor="#ffffff"
     bordercolor="#666666"
     borderopacity="1.0"
     inkscape:pageopacity="0.0"
     inkscape:pageshadow="2"
     inkscape:zoom="2.8284271"
     inkscape:cx="218.42319"
     inkscape:cy="139.03656"
     inkscape:document-units="mm"
     inkscape:current-layer="layer1"
     showgrid="false"
     fit-margin-top="0"
     fit-margin-left="0"
     fit-margin-right="0"
     fit-margin-bottom="0"
     inkscape:window-width="2560"
     inkscape:window-height="1341"
     inkscape:window-x="2560"
     inkscape:window-y="28"
     inkscape:window-maximized="1"
     showguides="true"
     inkscape:guide-bbox="true"
     inkscape:snap-global="true">
    <sodipodi:guide
       position="63.331503,24.389555"
       orientation="0,1"
       id="guide1481"
       inkscape:locked="false" />
    <sodipodi:guide
       position="37.071606,0.94085639"
       orientation="0,1"
       id="guide1483"
       inkscape:locked="false" />
    <sodipodi:guide
       position="22.658893,24.194882"
       orientation="1,0"
       id="guide563034"
       inkscape:locked="false" />
  </sodipodi:namedview>
  <metadata
     id="metadata26789">
    <rdf:RDF>
      <cc:Work
         rdf:about="">
        <dc:format>image/svg+xml</dc:format>
        <dc:type
           rdf:resource="http://purl.org/dc/dcmitype/StillImage" />
        <dc:title></dc:title>
      </cc:Work>
    </rdf:RDF>
  </metadata>
  <g
     inkscape:label="Layer 1"
     inkscape:groupmode="layer"
     id="layer1"
     transform="translate(5.8284545,-137.77281)">
    <image
       sodipodi:absref="/home/kevin/git/centaur-trmn.github.io/assets/images/HMS-Avalon-Ship-Crest-01.png"
       xlink:href="HMS-Avalon-Ship-Crest-01.png"
       style="stroke-width:7.53744602"
       width="19.587198"
       height="24.852571"
       preserveAspectRatio="none"
       id="image1478"
       x="-5.8284545"
       y="137.77281" />
    <g
       transform="translate(-13.645319,24.08628)"
       aria-label="THE ROYAL MANTICORAN NAVY HMS AVALON"
       style="font-style:normal;font-variant:normal;font-weight:normal;font-stretch:normal;font-size:8.47009563px;line-height:1;font-family:'Incised901 Nd BT';-inkscape-font-specification:'Incised901 Nd BT';letter-spacing:0.0079375px;word-spacing:0px;fill:#ff0000;fill-opacity:1;stroke:none;stroke-width:0.26458338"
       id="text3497">
      <path
         inkscape:connector-curvature="0"
         d="m 32.369948,120.63889 v -3.79665 h -1.894191 v -2.49802 h 7.039113 v 2.49802 h -1.898327 v 3.79665 z"
         style="letter-spacing:0.0079375px;fill:#000000;stroke-width:0.26458338"
         id="path3574" />
      <path
         inkscape:connector-curvature="0"
         d="m 38.201077,120.63889 v -6.29467 h 3.234187 v 2.20438 h 1.567464 v -2.20438 h 3.238322 v 6.29467 h -3.238322 v -1.94795 h -1.567464 v 1.94795 z"
         style="letter-spacing:0.0079375px;fill:#000000;stroke-width:0.26458338"
         id="path3576" />
      <path
         inkscape:connector-curvature="0"
         d="m 47.35738,120.63889 v -6.29467 h 7.030841 v 2.05135 h -3.862827 v 0.58315 h 3.862827 v 1.43925 h -3.862827 v 0.56247 h 3.862827 v 1.65845 z"
         style="letter-spacing:0.0079375px;fill:#000000;stroke-width:0.26458338"
         id="path3578" />
      <path
         inkscape:connector-curvature="0"
         d="m 62.374685,117.35094 h 0.620368 q 0.641048,0 0.909874,-0.15716 0.268826,-0.15716 0.268826,-0.52938 0,-0.31432 -0.231604,-0.43839 -0.231604,-0.12821 -0.880923,-0.12821 h -0.686541 z m -3.217644,3.28795 v -6.29467 h 6.063067 q 1.042219,0 1.575735,0.4508 0.533517,0.4508 0.533517,1.32759 0,0.83543 -0.492159,1.31518 -0.492159,0.47975 -1.472341,0.59142 l 2.212647,2.60968 H 63.84289 l -1.137342,-1.46407 q -0.07031,-0.0951 -0.169567,-0.23987 -0.09926,-0.14475 -0.202654,-0.31019 0.02068,0.23574 0.02895,0.47148 0.01241,0.23574 0.01241,0.46735 v 1.0753 z"
         style="letter-spacing:0.0079375px;fill:#000000;stroke-width:0.26458338"
         id="path3580" />
      <path
         inkscape:connector-curvature="0"
         d="m 72.205123,118.95149 q 0.479751,0 0.748577,-0.34741 0.268827,-0.3474 0.268827,-0.97191 0,-0.65345 -0.256419,-0.98018 -0.252283,-0.33086 -0.760985,-0.33086 -0.508702,0 -0.765121,0.33086 -0.252283,0.32673 -0.252283,0.98018 0,0.62864 0.26469,0.97605 0.268826,0.34327 0.752714,0.34327 z m 0,1.88179 q -2.183697,0 -3.238323,-0.81889 -1.054626,-0.82302 -1.054626,-2.52697 0,-1.69567 1.05049,-2.51456 1.054626,-0.82302 3.242459,-0.82302 2.187832,0 3.242458,0.82302 1.058762,0.81889 1.058762,2.51456 0,1.70395 -1.058762,2.52697 -1.054626,0.81889 -3.242458,0.81889 z"
         style="letter-spacing:0.0079375px;fill:#000000;stroke-width:0.26458338"
         id="path3582" />
      <path
         inkscape:connector-curvature="0"
         d="m 78.884087,120.63889 v -1.83629 l -2.746164,-4.45838 h 3.581593 l 0.541788,1.21179 q 0.08685,0.19024 0.161296,0.39703 0.07444,0.20266 0.136481,0.42599 0.08272,-0.32673 0.144753,-0.54179 0.06617,-0.21506 0.09926,-0.2895 l 0.516973,-1.20352 h 3.440977 l -2.667584,4.42943 v 1.86524 z"
         style="letter-spacing:0.0079375px;fill:#000000;stroke-width:0.26458338"
         id="path3584" />
      <path
         inkscape:connector-curvature="0"
         d="m 87.552363,118.08298 h 1.30691 l -0.397036,-1.22006 q -0.07858,-0.24815 -0.144753,-0.52111 -0.06204,-0.27296 -0.111666,-0.57488 -0.05376,0.3226 -0.115802,0.59969 -0.06204,0.27297 -0.136481,0.4963 z m -3.871098,2.55591 2.034808,-6.29467 h 4.971218 l 2.04308,6.29467 h -3.27968 l -0.244012,-0.81475 h -2.001722 l -0.260555,0.81475 z"
         style="letter-spacing:0.0079375px;fill:#000000;stroke-width:0.26458338"
         id="path3586" />
      <path
         inkscape:connector-curvature="0"
         d="m 93.201521,120.63889 v -6.29467 h 3.234186 v 4.04894 h 2.688263 v 2.24573 z"
         style="letter-spacing:0.0079375px;fill:#000000;stroke-width:0.26458338"
         id="path3588" />
      <path
         inkscape:connector-curvature="0"
         d="m 33.82161,125.59357 q 0.01654,0.27296 0.02482,0.53351 0.0083,0.25642 0.0083,0.57488 v 2.40703 h -2.95709 v -6.29467 h 4.015851 l 0.645184,2.1382 q 0.01241,0.0455 0.04136,0.14062 0.190247,0.64105 0.260555,1.00086 0.06617,-0.30605 0.264691,-0.97605 l 0.04136,-0.14061 0.636912,-2.16302 h 4.019987 v 6.29467 h -2.952953 v -2.36981 q 0,-0.18611 0.0041,-0.47561 0.0083,-0.28951 0.02068,-0.66587 -0.07444,0.26056 -0.153024,0.52111 -0.07858,0.25642 -0.194382,0.59969 l -0.806479,2.39049 h -1.761846 l -0.827158,-2.43185 q -0.103394,-0.30604 -0.181974,-0.56246 -0.07858,-0.26056 -0.148889,-0.52111 z"
         style="letter-spacing:0.0079375px;fill:#000000;stroke-width:0.26458338"
         id="path3590" />
      <path
         inkscape:connector-curvature="0"
         d="m 45.165745,126.55307 h 1.306909 l -0.397036,-1.22006 q -0.07858,-0.24814 -0.144752,-0.52111 -0.06204,-0.27296 -0.111667,-0.57487 -0.05376,0.32259 -0.115802,0.59969 -0.06204,0.27296 -0.136481,0.49629 z m -3.871099,2.55592 2.034809,-6.29467 h 4.971218 l 2.043079,6.29467 h -3.27968 l -0.244012,-0.81475 h -2.001721 l -0.260555,0.81475 z"
         style="letter-spacing:0.0079375px;fill:#000000;stroke-width:0.26458338"
         id="path3592" />
      <path
         inkscape:connector-curvature="0"
         d="m 50.814899,129.10899 v -6.29467 h 3.225915 l 1.211787,1.7453 q 0.198517,0.29778 0.326727,0.50457 0.128209,0.20679 0.239876,0.40944 -0.0041,-0.21092 -0.0083,-0.43426 0,-0.22333 0,-0.58728 v -1.63777 h 3.068755 v 6.29467 h -2.812336 l -1.670859,-2.09271 q -0.169567,-0.2192 -0.310184,-0.43012 -0.136481,-0.21093 -0.248147,-0.42185 0.02068,0.31845 0.02895,0.58728 0.01241,0.26469 0.01241,0.3929 v 1.9645 z"
         style="letter-spacing:0.0079375px;fill:#000000;stroke-width:0.26458338"
         id="path3594" />
      <path
         inkscape:connector-curvature="0"
         d="m 61.460086,129.10899 v -3.79666 h -1.894192 v -2.49801 h 7.039113 v 2.49801 H 64.70668 v 3.79666 z"
         style="letter-spacing:0.0079375px;fill:#000000;stroke-width:0.26458338"
         id="path3596" />
      <path
         inkscape:connector-curvature="0"
         d="m 67.299483,129.10899 v -6.29467 h 3.254866 v 6.29467 z"
         style="letter-spacing:0.0079375px;fill:#000000;stroke-width:0.26458338"
         id="path3598" />
      <path
         inkscape:connector-curvature="0"
         d="m 78.680842,128.95596 q -0.843701,0.17371 -1.596415,0.26056 -0.752714,0.0868 -1.418576,0.0868 -2.138202,0 -3.196964,-0.83129 -1.054627,-0.8313 -1.054627,-2.51456 0,-1.675 1.062898,-2.49388 1.062898,-0.81889 3.230051,-0.81889 0.583147,0 1.30691,0.0662 0.727898,0.0662 1.666723,0.20679 v 2.4732 q -0.665862,-0.1158 -1.211787,-0.16956 -0.545924,-0.0579 -0.963638,-0.0579 -0.872652,0 -1.298638,0.24401 -0.421851,0.23987 -0.421851,0.73617 0,0.45907 0.36395,0.68654 0.368085,0.22747 1.10012,0.22747 0.620368,0 1.224193,-0.0703 0.603825,-0.0744 1.207651,-0.22333 z"
         style="letter-spacing:0.0079375px;fill:#000000;stroke-width:0.26458338"
         id="path3600" />
      <path
         inkscape:connector-curvature="0"
         d="m 83.655864,127.42159 q 0.479751,0 0.748577,-0.34741 0.268827,-0.34741 0.268827,-0.97191 0,-0.65345 -0.256419,-0.98018 -0.252283,-0.33086 -0.760985,-0.33086 -0.508703,0 -0.765121,0.33086 -0.252284,0.32673 -0.252284,0.98018 0,0.62864 0.264691,0.97605 0.268826,0.34327 0.752714,0.34327 z m 0,1.88178 q -2.183697,0 -3.238323,-0.81889 -1.054626,-0.82302 -1.054626,-2.52696 0,-1.69568 1.05049,-2.51456 1.054626,-0.82302 3.242459,-0.82302 2.187832,0 3.242458,0.82302 1.058762,0.81888 1.058762,2.51456 0,1.70394 -1.058762,2.52696 -1.054626,0.81889 -3.242458,0.81889 z"
         style="letter-spacing:0.0079375px;fill:#000000;stroke-width:0.26458338"
         id="path3602" />
      <path
         inkscape:connector-curvature="0"
         d="m 92.02223,125.82104 h 0.620368 q 0.641047,0 0.909874,-0.15716 0.268826,-0.15716 0.268826,-0.52938 0,-0.31432 -0.231604,-0.4384 -0.231604,-0.12821 -0.880923,-0.12821 H 92.02223 Z m -3.217644,3.28795 v -6.29467 h 6.063067 q 1.042218,0 1.575735,0.4508 0.533517,0.4508 0.533517,1.32759 0,0.83543 -0.492159,1.31518 -0.492159,0.47975 -1.472341,0.59142 l 2.212647,2.60968 h -3.734617 l -1.137342,-1.46407 q -0.07031,-0.0951 -0.169567,-0.23988 -0.09926,-0.14475 -0.202654,-0.31018 0.02068,0.23574 0.02895,0.47148 0.01241,0.23574 0.01241,0.46734 v 1.07531 z"
         style="letter-spacing:0.0079375px;fill:#000000;stroke-width:0.26458338"
         id="path3604" />
      <path
         inkscape:connector-curvature="0"
         d="m 101.03791,126.55307 h 1.30691 l -0.39703,-1.22006 q -0.0786,-0.24814 -0.14476,-0.52111 -0.062,-0.27296 -0.11166,-0.57487 -0.0538,0.32259 -0.1158,0.59969 -0.062,0.27296 -0.13649,0.49629 z m -3.871095,2.55592 2.034808,-6.29467 h 4.971217 l 2.04308,6.29467 h -3.27968 l -0.24401,-0.81475 h -2.00172 l -0.26056,0.81475 z"
         style="letter-spacing:0.0079375px;fill:#000000;stroke-width:0.26458338"
         id="path3606" />
      <path
         inkscape:connector-curvature="0"
         d="m 106.68707,129.10899 v -6.29467 h 3.22591 l 1.21179,1.7453 q 0.19852,0.29778 0.32673,0.50457 0.1282,0.20679 0.23987,0.40944 -0.004,-0.21092 -0.008,-0.43426 0,-0.22333 0,-0.58728 v -1.63777 h 3.06876 v 6.29467 h -2.81234 l -1.67086,-2.09271 q -0.16957,-0.2192 -0.31018,-0.43012 -0.13649,-0.21093 -0.24815,-0.42185 0.0207,0.31845 0.0289,0.58728 0.0124,0.26469 0.0124,0.3929 v 1.9645 z"
         style="letter-spacing:0.0079375px;fill:#000000;stroke-width:0.26458338"
         id="path3608" />
      <path
         inkscape:connector-curvature="0"
         d="m 119.75549,129.10899 v -6.29467 h 3.22592 l 1.21179,1.7453 q 0.19851,0.29778 0.32672,0.50457 0.12821,0.20679 0.23988,0.40944 -0.004,-0.21092 -0.008,-0.43426 0,-0.22333 0,-0.58728 v -1.63777 h 3.06875 v 6.29467 h -2.81233 l -1.67086,-2.09271 q -0.16957,-0.2192 -0.31019,-0.43012 -0.13648,-0.21093 -0.24814,-0.42185 0.0207,0.31845 0.0289,0.58728 0.0124,0.26469 0.0124,0.3929 v 1.9645 z"
         style="letter-spacing:0.0079375px;fill:#000000;stroke-width:0.26458338"
         id="path3610" />
      <path
         inkscape:connector-curvature="0"
         d="m 132.15425,126.55307 h 1.30691 l -0.39703,-1.22006 q -0.0786,-0.24814 -0.14476,-0.52111 -0.062,-0.27296 -0.11166,-0.57487 -0.0538,0.32259 -0.1158,0.59969 -0.062,0.27296 -0.13648,0.49629 z m -3.87109,2.55592 2.0348,-6.29467 h 4.97122 l 2.04308,6.29467 h -3.27968 l -0.24401,-0.81475 h -2.00172 l -0.26056,0.81475 z"
         style="letter-spacing:0.0079375px;fill:#000000;stroke-width:0.26458338"
         id="path3612" />
      <path
         inkscape:connector-curvature="0"
         d="m 138.82908,129.10899 -2.0348,-6.29467 h 3.34585 l 0.76098,2.8661 q 0.0745,0.26055 0.13649,0.57901 0.0662,0.31432 0.13648,0.72376 0.0413,-0.335 0.10339,-0.66172 0.062,-0.32673 0.14062,-0.64105 l 0.73617,-2.8661 h 3.27968 l -1.99759,6.29467 z"
         style="letter-spacing:0.0079375px;fill:#000000;stroke-width:0.26458338"
         id="path3614" />
      <path
         inkscape:connector-curvature="0"
         d="m 148.10218,129.10899 v -1.83629 l -2.74616,-4.45838 h 3.58159 l 0.54179,1.21178 q 0.0868,0.19025 0.16129,0.39704 0.0744,0.20265 0.13648,0.42599 0.0827,-0.32673 0.14476,-0.54179 0.0662,-0.21506 0.0993,-0.28951 l 0.51697,-1.20351 h 3.44098 l -2.66759,4.42943 v 1.86524 z"
         style="letter-spacing:0.0079375px;fill:#000000;stroke-width:0.26458338"
         id="path3616" />
      <path
         inkscape:connector-curvature="0"
         d="m 30.095264,137.57908 1.683266,-6.29467 h 2.675856 l -0.599689,2.24574 h 1.575735 l 0.607961,-2.24574 h 2.675855 l -1.683266,6.29467 h -2.675855 l 0.607961,-2.27882 h -1.584007 l -0.607961,2.27882 z"
         style="font-style:normal;font-variant:normal;font-weight:normal;font-stretch:normal;font-family:'Incised901 NdIt BT';-inkscape-font-specification:'Incised901 NdIt BT';letter-spacing:0.0079375px;fill:#be2f26;fill-opacity:1;stroke-width:0.26458338"
         id="path3618" />
      <path
         inkscape:connector-curvature="0"
         d="m 41.695818,133.92718 q -0.07031,0.35154 -0.140616,0.65346 -0.07031,0.30191 -0.136481,0.55006 l -0.653455,2.44838 h -2.555918 l 1.683266,-6.29467 h 3.507149 l 0.07858,2.31605 q 0.0041,0.091 0.0041,0.19438 0.0041,0.0993 0.0041,0.28537 0,0.14061 -0.0041,0.28537 -0.0041,0.14061 -0.01654,0.29777 0.06617,-0.14475 0.161296,-0.32672 0.09512,-0.18611 0.248147,-0.45081 l 1.505427,-2.60141 h 3.602272 l -1.687401,6.29467 h -2.547646 l 0.686541,-2.59314 q 0.01241,-0.0579 0.07031,-0.24814 0.0579,-0.19025 0.231604,-0.75685 l -0.136481,0.22747 q -0.322591,0.54178 -0.463208,0.76098 l -1.670859,2.60968 h -1.455798 l -0.227468,-2.4732 q -0.01654,-0.14889 -0.03722,-0.39703 -0.01654,-0.24815 -0.04963,-0.78167 z"
         style="font-style:normal;font-variant:normal;font-weight:normal;font-stretch:normal;font-family:'Incised901 NdIt BT';-inkscape-font-specification:'Incised901 NdIt BT';letter-spacing:0.0079375px;fill:#be2f26;fill-opacity:1;stroke-width:0.26458338"
         id="path3620" />
      <path
         inkscape:connector-curvature="0"
         d="m 48.767684,135.82551 q 0.806479,0.1158 1.410304,0.16957 0.603825,0.0496 1.079441,0.0496 0.756849,0 1.025675,-0.0868 0.272962,-0.0869 0.272962,-0.31019 0,-0.15302 -0.09099,-0.2192 -0.09099,-0.0703 -0.301912,-0.0703 -0.301913,0 -0.649319,0.008 -0.09512,0 -0.119938,0 -1.195243,0 -1.670859,-0.32259 -0.47148,-0.3226 -0.47148,-1.10012 0,-0.59556 0.231604,-1.1787 0.231605,-0.58315 0.616233,-0.96364 0.368085,-0.36395 1.046354,-0.52525 0.682406,-0.16129 1.927278,-0.16129 0.802343,0 1.666723,0.0703 0.86438,0.0662 1.770118,0.20266 l -0.525246,1.99758 q -0.587282,-0.1158 -1.100119,-0.1737 -0.508702,-0.062 -0.947096,-0.062 -0.996725,0 -1.36481,0.0993 -0.36395,0.0993 -0.36395,0.33914 0,0.15302 0.103395,0.21092 0.103395,0.0538 0.554196,0.0538 h 1.017404 q 0.897466,0 1.302773,0.30191 0.409443,0.30191 0.409443,0.9595 0,0.61624 -0.194382,1.13321 -0.194382,0.51697 -0.541788,0.83957 -0.384628,0.36394 -1.033947,0.52938 -0.645183,0.16543 -1.687402,0.16543 -0.91401,0 -1.865241,-0.0827 -0.951231,-0.0827 -1.927278,-0.24815 z"
         style="font-style:normal;font-variant:normal;font-weight:normal;font-stretch:normal;font-family:'Incised901 NdIt BT';-inkscape-font-specification:'Incised901 NdIt BT';letter-spacing:0.0079375px;fill:#be2f26;fill-opacity:1;stroke-width:0.26458338"
         id="path3622" />
      <path
         inkscape:connector-curvature="0"
         d="m 59.135438,137.57908 3.755296,-6.29467 h 4.503874 l -0.03309,6.29467 h -2.617954 l 0.0083,-0.914 h -2.109252 l -0.533517,0.914 z m 4.297085,-2.4732 h 1.389625 l 0.02481,-2.33672 z"
         style="font-style:normal;font-variant:normal;font-weight:normal;font-stretch:normal;font-family:'Incised901 NdIt BT';-inkscape-font-specification:'Incised901 NdIt BT';letter-spacing:0.0079375px;fill:#be2f26;fill-opacity:1;stroke-width:0.26458338"
         id="path3624" />
      <path
         inkscape:connector-curvature="0"
         d="m 68.469579,137.57908 0.02482,-6.29467 h 2.651041 l -0.210926,3.48234 q -0.02481,0.40944 -0.05376,0.75271 -0.02482,0.33914 -0.0579,0.63691 0.194382,-0.49216 0.467344,-1.1208 0.04136,-0.0951 0.0579,-0.13234 l 1.575736,-3.61882 h 2.911595 l -3.370668,6.29467 z"
         style="font-style:normal;font-variant:normal;font-weight:normal;font-stretch:normal;font-family:'Incised901 NdIt BT';-inkscape-font-specification:'Incised901 NdIt BT';letter-spacing:0.0079375px;fill:#be2f26;fill-opacity:1;stroke-width:0.26458338"
         id="path3626" />
      <path
         inkscape:connector-curvature="0"
         d="m 73.866448,137.57908 3.755297,-6.29467 h 4.503874 l -0.03309,6.29467 h -2.617954 l 0.0083,-0.914 h -2.109253 l -0.533516,0.914 z m 4.297085,-2.4732 h 1.389625 l 0.02482,-2.33672 z"
         style="font-style:normal;font-variant:normal;font-weight:normal;font-stretch:normal;font-family:'Incised901 NdIt BT';-inkscape-font-specification:'Incised901 NdIt BT';letter-spacing:0.0079375px;fill:#be2f26;fill-opacity:1;stroke-width:0.26458338"
         id="path3628" />
      <path
         inkscape:connector-curvature="0"
         d="m 82.609173,137.57908 1.683266,-6.29467 h 2.70067 l -1.091848,4.08203 h 2.576596 l -0.595553,2.21264 z"
         style="font-style:normal;font-variant:normal;font-weight:normal;font-stretch:normal;font-family:'Incised901 NdIt BT';-inkscape-font-specification:'Incised901 NdIt BT';letter-spacing:0.0079375px;fill:#be2f26;fill-opacity:1;stroke-width:0.26458338"
         id="path3630" />
      <path
         inkscape:connector-curvature="0"
         d="m 92.960717,133.29441 q -0.301913,0 -0.529381,0.1158 -0.223332,0.11167 -0.368085,0.33913 -0.202654,0.3226 -0.347406,0.81475 -0.144753,0.48803 -0.144753,0.85611 0,0.27296 0.223333,0.41772 0.227468,0.14061 0.65759,0.14061 0.268826,0 0.47148,-0.0827 0.202654,-0.0827 0.34327,-0.24815 0.115803,-0.13648 0.202654,-0.31432 0.08685,-0.17784 0.169567,-0.44666 0.09512,-0.30605 0.144753,-0.54179 0.04963,-0.23988 0.04963,-0.40945 0,-0.32259 -0.219197,-0.47975 -0.215061,-0.16129 -0.653455,-0.16129 z m -4.098567,2.41116 q 0,-0.21506 0.02482,-0.4508 0.02481,-0.23574 0.07444,-0.49629 0.140617,-0.71136 0.351542,-1.29037 0.210926,-0.58315 0.454937,-0.93882 0.347406,-0.50043 0.732035,-0.79821 0.384628,-0.29778 0.851972,-0.43012 0.417715,-0.11167 0.909874,-0.16543 0.492159,-0.0538 1.104255,-0.0538 0.918146,0 1.530242,0.11994 0.616233,0.11994 1.062898,0.38049 0.363949,0.21506 0.537653,0.62037 0.173703,0.40531 0.173703,1.03808 0,0.35982 -0.0579,0.74444 -0.05377,0.38463 -0.169568,0.79821 -0.173703,0.64105 -0.434258,1.15802 -0.256418,0.51284 -0.60796,0.90988 -0.438394,0.48802 -1.191108,0.70722 -0.752713,0.21506 -2.063758,0.21506 -1.799068,0 -2.54351,-0.47148 -0.740307,-0.47148 -0.740307,-1.59642 z"
         style="font-style:normal;font-variant:normal;font-weight:normal;font-stretch:normal;font-family:'Incised901 NdIt BT';-inkscape-font-specification:'Incised901 NdIt BT';letter-spacing:0.0079375px;fill:#be2f26;fill-opacity:1;stroke-width:0.26458338"
         id="path3632" />
      <path
         inkscape:connector-curvature="0"
         d="m 96.587475,137.57908 1.683266,-6.29467 h 2.990179 l 0.4508,2.72135 q 0.0124,0.0827 0.0496,0.35154 0.0372,0.2647 0.0993,0.7155 0.0744,-0.38463 0.22746,-0.97191 0.0248,-0.0993 0.0372,-0.14476 l 0.71962,-2.67172 h 2.61796 l -1.6874,6.29467 h -2.96123 l -0.54592,-2.4153 q -0.0414,-0.18611 -0.0993,-0.4508 -0.0538,-0.26882 -0.11167,-0.57074 -0.07444,0.4508 -0.235738,1.04636 v 0.0124 l -0.653455,2.37807 z"
         style="font-style:normal;font-variant:normal;font-weight:normal;font-stretch:normal;font-family:'Incised901 NdIt BT';-inkscape-font-specification:'Incised901 NdIt BT';letter-spacing:0.0079375px;fill:#be2f26;fill-opacity:1;stroke-width:0.26458338"
         id="path3634" />
    </g>
  </g>
</svg>
