<?xml version="1.0" encoding="UTF-8" standalone="no"?>
<!-- Created with Inkscape (http://www.inkscape.org/) -->

<svg
   xmlns:dc="http://purl.org/dc/elements/1.1/"
   xmlns:cc="http://creativecommons.org/ns#"
   xmlns:rdf="http://www.w3.org/1999/02/22-rdf-syntax-ns#"
   xmlns:svg="http://www.w3.org/2000/svg"
   xmlns="http://www.w3.org/2000/svg"
   xmlns:xlink="http://www.w3.org/1999/xlink"
   xmlns:sodipodi="http://sodipodi.sourceforge.net/DTD/sodipodi-0.dtd"
   xmlns:inkscape="http://www.inkscape.org/namespaces/inkscape"
   width="146.24319mm"
   height="24.852571mm"
   viewBox="0 0 146.2432 24.852571"
   version="1.1"
   id="svg26792"
   inkscape:version="0.92.3 (2405546, 2018-03-11)"
   sodipodi:docname="centaur-logotype.svg">
  <defs
     id="defs26786" />
  <sodipodi:namedview
     id="base"
     pagecolor="#ffffff"
     bordercolor="#666666"
     borderopacity="1.0"
     inkscape:pageopacity="0.0"
     inkscape:pageshadow="2"
     inkscape:zoom="2.8284271"
     inkscape:cx="126.0368"
     inkscape:cy="94.865863"
     inkscape:document-units="mm"
     inkscape:current-layer="layer1"
     showgrid="false"
     fit-margin-top="0"
     fit-margin-left="0"
     fit-margin-right="0"
     fit-margin-bottom="0"
     inkscape:window-width="2560"
     inkscape:window-height="1341"
     inkscape:window-x="2560"
     inkscape:window-y="28"
     inkscape:window-maximized="1"
     showguides="true"
     inkscape:guide-bbox="true"
     inkscape:snap-global="true">
    <sodipodi:guide
       position="63.331503,24.389555"
       orientation="0,1"
       id="guide1481"
       inkscape:locked="false" />
    <sodipodi:guide
       position="37.071606,0.94085639"
       orientation="0,1"
       id="guide1483"
       inkscape:locked="false" />
    <sodipodi:guide
       position="22.658893,24.194882"
       orientation="1,0"
       id="guide563034"
       inkscape:locked="false" />
  </sodipodi:namedview>
  <metadata
     id="metadata26789">
    <rdf:RDF>
      <cc:Work
         rdf:about="">
        <dc:format>image/svg+xml</dc:format>
        <dc:type
           rdf:resource="http://purl.org/dc/dcmitype/StillImage" />
        <dc:title />
      </cc:Work>
    </rdf:RDF>
  </metadata>
  <g
     inkscape:label="Layer 1"
     inkscape:groupmode="layer"
     id="layer1"
     transform="translate(5.8284545,-137.77281)">
    <image
       sodipodi:absref="/home/kevin/git/centaur-trmn.github.io/assets/images/crest.png"
       xlink:href="crest.png"
       style="stroke-width:7.53744602"
       width="19.587198"
       height="24.852571"
       preserveAspectRatio="none"
       id="image1478"
       x="-5.8284545"
       y="137.77281" />
    <g
       transform="translate(-17.992046,-54.538443)"
       aria-label="THE ROYAL MANTICORAN NAVY HMS CENTAUR"
       style="font-style:normal;font-variant:normal;font-weight:normal;font-stretch:normal;font-size:8.47009563px;line-height:1;font-family:'Incised901 Nd BT';-inkscape-font-specification:'Incised901 Nd BT';letter-spacing:0.0079375px;word-spacing:0px;fill:#ff0000;fill-opacity:1;stroke:none;stroke-width:0.26458338"
       id="text817">
      <path
         inkscape:connector-curvature="0"
         d="m 36.716676,199.06894 v -3.79665 h -1.894192 v -2.49802 h 7.039113 v 2.49802 H 39.96327 v 3.79665 z"
         style="letter-spacing:0.0079375px;fill:#000000;stroke-width:0.26458338"
         id="path3706" />
      <path
         inkscape:connector-curvature="0"
         d="m 42.547804,199.06894 v -6.29467 h 3.234187 v 2.20437 h 1.567464 v -2.20437 h 3.238323 v 6.29467 h -3.238323 v -1.94796 h -1.567464 v 1.94796 z"
         style="letter-spacing:0.0079375px;fill:#000000;stroke-width:0.26458338"
         id="path3708" />
      <path
         inkscape:connector-curvature="0"
         d="m 51.704107,199.06894 v -6.29467 h 7.030841 v 2.05135 h -3.862827 v 0.58315 h 3.862827 v 1.43925 h -3.862827 v 0.56247 h 3.862827 v 1.65845 z"
         style="letter-spacing:0.0079375px;fill:#000000;stroke-width:0.26458338"
         id="path3710" />
      <path
         inkscape:connector-curvature="0"
         d="m 66.721412,195.78099 h 0.620369 q 0.641047,0 0.909873,-0.15716 0.268826,-0.15716 0.268826,-0.52938 0,-0.31432 -0.231604,-0.4384 -0.231604,-0.12821 -0.880923,-0.12821 h -0.686541 z m -3.217643,3.28795 v -6.29467 h 6.063066 q 1.042219,0 1.575736,0.4508 0.533516,0.4508 0.533516,1.32759 0,0.83543 -0.492158,1.31518 -0.492159,0.47975 -1.472341,0.59142 l 2.212647,2.60968 h -3.734618 l -1.137342,-1.46407 q -0.07031,-0.0951 -0.169567,-0.23988 -0.09926,-0.14475 -0.202654,-0.31018 0.02068,0.23574 0.02895,0.47148 0.01241,0.23574 0.01241,0.46734 v 1.07531 z"
         style="letter-spacing:0.0079375px;fill:#000000;stroke-width:0.26458338"
         id="path3712" />
      <path
         inkscape:connector-curvature="0"
         d="m 76.55185,197.38154 q 0.479752,0 0.748578,-0.34741 0.268826,-0.34741 0.268826,-0.97191 0,-0.65345 -0.256419,-0.98018 -0.252283,-0.33086 -0.760985,-0.33086 -0.508702,0 -0.765121,0.33086 -0.252283,0.32673 -0.252283,0.98018 0,0.62864 0.264691,0.97605 0.268826,0.34327 0.752713,0.34327 z m 0,1.88178 q -2.183696,0 -3.238323,-0.81888 -1.054626,-0.82303 -1.054626,-2.52697 0,-1.69568 1.050491,-2.51456 1.054626,-0.82302 3.242458,-0.82302 2.187832,0 3.242459,0.82302 1.058762,0.81888 1.058762,2.51456 0,1.70394 -1.058762,2.52697 -1.054627,0.81888 -3.242459,0.81888 z"
         style="letter-spacing:0.0079375px;fill:#000000;stroke-width:0.26458338"
         id="path3714" />
      <path
         inkscape:connector-curvature="0"
         d="m 83.230814,199.06894 v -1.83629 l -2.746164,-4.45838 h 3.581593 l 0.541789,1.21178 q 0.08685,0.19025 0.161295,0.39704 0.07444,0.20265 0.136481,0.42599 0.08272,-0.32673 0.144753,-0.54179 0.06617,-0.21506 0.09926,-0.28951 l 0.516974,-1.20351 h 3.440976 l -2.667584,4.42943 v 1.86524 z"
         style="letter-spacing:0.0079375px;fill:#000000;stroke-width:0.26458338"
         id="path3716" />
      <path
         inkscape:connector-curvature="0"
         d="M 91.899091,196.51302 H 93.206 l -0.397036,-1.22006 q -0.07858,-0.24814 -0.144752,-0.52111 -0.06204,-0.27296 -0.111667,-0.57487 -0.05376,0.32259 -0.115802,0.59969 -0.06204,0.27296 -0.136481,0.49629 z m -3.871099,2.55592 2.034809,-6.29467 h 4.971218 l 2.043079,6.29467 h -3.27968 l -0.244012,-0.81475 h -2.001721 l -0.260555,0.81475 z"
         style="letter-spacing:0.0079375px;fill:#000000;stroke-width:0.26458338"
         id="path3718" />
      <path
         inkscape:connector-curvature="0"
         d="m 97.548248,199.06894 v -6.29467 h 3.234182 v 4.04894 h 2.68827 v 2.24573 z"
         style="letter-spacing:0.0079375px;fill:#000000;stroke-width:0.26458338"
         id="path3720" />
      <path
         inkscape:connector-curvature="0"
         d="m 38.168338,204.02361 q 0.01654,0.27297 0.02481,0.53352 0.0083,0.25642 0.0083,0.57488 v 2.40702 h -2.957089 v -6.29467 h 4.015851 l 0.645183,2.13821 q 0.01241,0.0455 0.04136,0.14061 0.190246,0.64105 0.260554,1.00086 0.06617,-0.30604 0.264691,-0.97604 l 0.04136,-0.14062 0.636911,-2.16302 h 4.019987 v 6.29467 h -2.952953 v -2.3698 q 0,-0.18611 0.0041,-0.47562 0.0083,-0.2895 0.02068,-0.66586 -0.07444,0.26055 -0.153025,0.52111 -0.07858,0.25642 -0.194382,0.59969 l -0.806478,2.39048 h -1.761847 l -0.827157,-2.43184 q -0.103395,-0.30605 -0.181975,-0.56247 -0.07858,-0.26055 -0.148888,-0.52111 z"
         style="letter-spacing:0.0079375px;fill:#000000;stroke-width:0.26458338"
         id="path3722" />
      <path
         inkscape:connector-curvature="0"
         d="m 49.512472,204.98312 h 1.306909 l -0.397035,-1.22006 q -0.07858,-0.24815 -0.144753,-0.52111 -0.06204,-0.27296 -0.111666,-0.57487 -0.05377,0.32259 -0.115802,0.59968 -0.06204,0.27297 -0.136481,0.4963 z m -3.871098,2.55591 2.034808,-6.29467 H 52.6474 l 2.04308,6.29467 h -3.279681 l -0.244011,-0.81475 h -2.001722 l -0.260555,0.81475 z"
         style="letter-spacing:0.0079375px;fill:#000000;stroke-width:0.26458338"
         id="path3724" />
      <path
         inkscape:connector-curvature="0"
         d="m 55.161626,207.53903 v -6.29467 h 3.225916 l 1.211786,1.74531 q 0.198518,0.29777 0.326727,0.50456 0.12821,0.20679 0.239876,0.40945 -0.0041,-0.21093 -0.0083,-0.43426 0,-0.22333 0,-0.58728 v -1.63778 h 3.068756 v 6.29467 H 60.41405 l -1.670858,-2.0927 q -0.169568,-0.2192 -0.310185,-0.43013 -0.136481,-0.21092 -0.248147,-0.42185 0.02068,0.31846 0.02895,0.58729 0.01241,0.26469 0.01241,0.3929 v 1.96449 z"
         style="letter-spacing:0.0079375px;fill:#000000;stroke-width:0.26458338"
         id="path3726" />
      <path
         inkscape:connector-curvature="0"
         d="m 65.806813,207.53903 v -3.79665 h -1.894191 v -2.49802 h 7.039113 v 2.49802 h -1.898328 v 3.79665 z"
         style="letter-spacing:0.0079375px;fill:#000000;stroke-width:0.26458338"
         id="path3728" />
      <path
         inkscape:connector-curvature="0"
         d="m 71.646211,207.53903 v -6.29467 h 3.254866 v 6.29467 z"
         style="letter-spacing:0.0079375px;fill:#000000;stroke-width:0.26458338"
         id="path3730" />
      <path
         inkscape:connector-curvature="0"
         d="m 83.027569,207.38601 q -0.843701,0.1737 -1.596415,0.26056 -0.752713,0.0868 -1.418575,0.0868 -2.138203,0 -3.196965,-0.8313 -1.054626,-0.83129 -1.054626,-2.51456 0,-1.67499 1.062898,-2.49388 1.062897,-0.81888 3.230051,-0.81888 0.583146,0 1.306909,0.0662 0.727899,0.0662 1.666723,0.20679 v 2.4732 q -0.665862,-0.1158 -1.211786,-0.16957 -0.545924,-0.0579 -0.963639,-0.0579 -0.872651,0 -1.298638,0.24401 -0.42185,0.23988 -0.42185,0.73617 0,0.45908 0.363949,0.68655 0.368085,0.22746 1.10012,0.22746 0.620368,0 1.224194,-0.0703 0.603825,-0.0745 1.20765,-0.22334 z"
         style="letter-spacing:0.0079375px;fill:#000000;stroke-width:0.26458338"
         id="path3732" />
      <path
         inkscape:connector-curvature="0"
         d="m 88.002591,205.85163 q 0.479751,0 0.748578,-0.3474 0.268826,-0.34741 0.268826,-0.97191 0,-0.65346 -0.256419,-0.98019 -0.252283,-0.33086 -0.760985,-0.33086 -0.508702,0 -0.765121,0.33086 -0.252283,0.32673 -0.252283,0.98019 0,0.62864 0.26469,0.97604 0.268827,0.34327 0.752714,0.34327 z m 0,1.88179 q -2.183697,0 -3.238323,-0.81889 -1.054626,-0.82302 -1.054626,-2.52697 0,-1.69567 1.05049,-2.51456 1.054627,-0.82302 3.242459,-0.82302 2.187832,0 3.242458,0.82302 1.058762,0.81889 1.058762,2.51456 0,1.70395 -1.058762,2.52697 -1.054626,0.81889 -3.242458,0.81889 z"
         style="letter-spacing:0.0079375px;fill:#000000;stroke-width:0.26458338"
         id="path3734" />
      <path
         inkscape:connector-curvature="0"
         d="m 96.368957,204.25108 h 0.620369 q 0.641047,0 0.909873,-0.15716 0.268826,-0.15716 0.268826,-0.52938 0,-0.31432 -0.231604,-0.43839 -0.231604,-0.12821 -0.880923,-0.12821 h -0.686541 z m -3.217644,3.28795 v -6.29467 h 6.063067 q 1.04222,0 1.57574,0.45081 0.53351,0.4508 0.53351,1.32758 0,0.83543 -0.49216,1.31518 -0.49216,0.47976 -1.472337,0.59142 l 2.212647,2.60968 h -3.734618 l -1.137342,-1.46406 q -0.07031,-0.0951 -0.169567,-0.23988 -0.09926,-0.14475 -0.202654,-0.31018 0.02068,0.23574 0.02895,0.47148 0.01241,0.23574 0.01241,0.46734 v 1.0753 z"
         style="letter-spacing:0.0079375px;fill:#000000;stroke-width:0.26458338"
         id="path3736" />
      <path
         inkscape:connector-curvature="0"
         d="m 105.38464,204.98312 h 1.30691 l -0.39704,-1.22006 q -0.0786,-0.24815 -0.14475,-0.52111 -0.062,-0.27296 -0.11166,-0.57487 -0.0538,0.32259 -0.11581,0.59968 -0.062,0.27297 -0.13648,0.4963 z m -3.8711,2.55591 2.03481,-6.29467 h 4.97122 l 2.04308,6.29467 h -3.27968 l -0.24401,-0.81475 h -2.00173 l -0.26055,0.81475 z"
         style="letter-spacing:0.0079375px;fill:#000000;stroke-width:0.26458338"
         id="path3738" />
      <path
         inkscape:connector-curvature="0"
         d="m 111.03379,207.53903 v -6.29467 h 3.22592 l 1.21179,1.74531 q 0.19851,0.29777 0.32672,0.50456 0.12821,0.20679 0.23988,0.40945 -0.004,-0.21093 -0.008,-0.43426 0,-0.22333 0,-0.58728 v -1.63778 h 3.06875 v 6.29467 h -2.81233 l -1.67086,-2.0927 q -0.16957,-0.2192 -0.31019,-0.43013 -0.13648,-0.21092 -0.24814,-0.42185 0.0207,0.31846 0.0289,0.58729 0.0124,0.26469 0.0124,0.3929 v 1.96449 z"
         style="letter-spacing:0.0079375px;fill:#000000;stroke-width:0.26458338"
         id="path3740" />
      <path
         inkscape:connector-curvature="0"
         d="m 124.10222,207.53903 v -6.29467 h 3.22592 l 1.21178,1.74531 q 0.19852,0.29777 0.32673,0.50456 0.12821,0.20679 0.23988,0.40945 -0.004,-0.21093 -0.008,-0.43426 0,-0.22333 0,-0.58728 v -1.63778 h 3.06875 v 6.29467 h -2.81234 l -1.67085,-2.0927 q -0.16957,-0.2192 -0.31019,-0.43013 -0.13648,-0.21092 -0.24815,-0.42185 0.0207,0.31846 0.029,0.58729 0.0124,0.26469 0.0124,0.3929 v 1.96449 z"
         style="letter-spacing:0.0079375px;fill:#000000;stroke-width:0.26458338"
         id="path3742" />
      <path
         inkscape:connector-curvature="0"
         d="m 136.50098,204.98312 h 1.30691 l -0.39704,-1.22006 q -0.0786,-0.24815 -0.14475,-0.52111 -0.062,-0.27296 -0.11166,-0.57487 -0.0538,0.32259 -0.11581,0.59968 -0.062,0.27297 -0.13648,0.4963 z m -3.8711,2.55591 2.03481,-6.29467 h 4.97122 l 2.04308,6.29467 h -3.27968 l -0.24401,-0.81475 h -2.00172 l -0.26056,0.81475 z"
         style="letter-spacing:0.0079375px;fill:#000000;stroke-width:0.26458338"
         id="path3744" />
      <path
         inkscape:connector-curvature="0"
         d="m 143.17581,207.53903 -2.03481,-6.29467 h 3.34586 l 0.76098,2.86611 q 0.0745,0.26055 0.13648,0.57901 0.0662,0.31432 0.13648,0.72376 0.0414,-0.335 0.1034,-0.66173 0.062,-0.32672 0.14062,-0.64104 l 0.73617,-2.86611 h 3.27968 l -1.99759,6.29467 z"
         style="letter-spacing:0.0079375px;fill:#000000;stroke-width:0.26458338"
         id="path3746" />
      <path
         inkscape:connector-curvature="0"
         d="m 152.44891,207.53903 v -1.83629 l -2.74617,-4.45838 h 3.5816 l 0.54179,1.21179 q 0.0868,0.19025 0.16129,0.39704 0.0745,0.20265 0.13648,0.42598 0.0827,-0.32673 0.14475,-0.54179 0.0662,-0.21506 0.0993,-0.2895 l 0.51698,-1.20352 h 3.44097 l -2.66758,4.42943 v 1.86524 z"
         style="letter-spacing:0.0079375px;fill:#000000;stroke-width:0.26458338"
         id="path3748" />
      <path
         inkscape:connector-curvature="0"
         d="m 34.441992,216.00913 1.683266,-6.29467 h 2.675855 l -0.599689,2.24573 h 1.575735 l 0.607961,-2.24573 h 2.675856 l -1.683266,6.29467 h -2.675856 l 0.607961,-2.27882 h -1.584007 l -0.607961,2.27882 z"
         style="font-style:normal;font-variant:normal;font-weight:normal;font-stretch:normal;font-family:'Incised901 NdIt BT';-inkscape-font-specification:'Incised901 NdIt BT';letter-spacing:0.0079375px;fill:#be2f26;fill-opacity:1;stroke-width:0.26458338"
         id="path3750" />
      <path
         inkscape:connector-curvature="0"
         d="m 46.042546,212.35723 q -0.07031,0.35154 -0.140617,0.65345 -0.07031,0.30192 -0.136481,0.55006 l -0.653455,2.44839 h -2.555917 l 1.683266,-6.29467 h 3.507149 l 0.07858,2.31604 q 0.0041,0.091 0.0041,0.19438 0.0041,0.0993 0.0041,0.28537 0,0.14062 -0.0041,0.28537 -0.0041,0.14062 -0.01654,0.29778 0.06617,-0.14475 0.161296,-0.32673 0.09512,-0.18611 0.248148,-0.4508 l 1.505427,-2.60141 h 3.602272 l -1.687402,6.29467 h -2.547646 l 0.686541,-2.59314 q 0.01241,-0.0579 0.07031,-0.24815 0.0579,-0.19024 0.231605,-0.75685 l -0.136481,0.22747 q -0.322592,0.54179 -0.463209,0.76099 l -1.670859,2.60968 h -1.455797 l -0.227469,-2.4732 q -0.01654,-0.14889 -0.03722,-0.39704 -0.01654,-0.24814 -0.04963,-0.78166 z"
         style="font-style:normal;font-variant:normal;font-weight:normal;font-stretch:normal;font-family:'Incised901 NdIt BT';-inkscape-font-specification:'Incised901 NdIt BT';letter-spacing:0.0079375px;fill:#be2f26;fill-opacity:1;stroke-width:0.26458338"
         id="path3752" />
      <path
         inkscape:connector-curvature="0"
         d="m 53.114411,214.25556 q 0.806479,0.1158 1.410304,0.16956 0.603825,0.0496 1.079441,0.0496 0.75685,0 1.025676,-0.0868 0.272962,-0.0868 0.272962,-0.31018 0,-0.15303 -0.09099,-0.2192 -0.09099,-0.0703 -0.301913,-0.0703 -0.301913,0 -0.649319,0.008 -0.09512,0 -0.119938,0 -1.195243,0 -1.670859,-0.32259 -0.471479,-0.32259 -0.471479,-1.10012 0,-0.59555 0.231604,-1.1787 0.231604,-0.58314 0.616232,-0.96364 0.368085,-0.36395 1.046355,-0.52524 0.682405,-0.1613 1.927277,-0.1613 0.802344,0 1.666723,0.0703 0.86438,0.0662 1.770118,0.20265 l -0.525245,1.99759 q -0.587282,-0.1158 -1.10012,-0.1737 -0.508702,-0.062 -0.947096,-0.062 -0.996725,0 -1.36481,0.0993 -0.363949,0.0993 -0.363949,0.33913 0,0.15303 0.103394,0.21093 0.103395,0.0538 0.554196,0.0538 h 1.017404 q 0.897466,0 1.302774,0.30192 0.409443,0.30191 0.409443,0.9595 0,0.61623 -0.194382,1.13321 -0.194382,0.51697 -0.541789,0.83956 -0.384628,0.36395 -1.033947,0.52938 -0.645183,0.16543 -1.687402,0.16543 -0.914009,0 -1.865241,-0.0827 -0.951231,-0.0827 -1.927277,-0.24815 z"
         style="font-style:normal;font-variant:normal;font-weight:normal;font-stretch:normal;font-family:'Incised901 NdIt BT';-inkscape-font-specification:'Incised901 NdIt BT';letter-spacing:0.0079375px;fill:#be2f26;fill-opacity:1;stroke-width:0.26458338"
         id="path3754" />
      <path
         inkscape:connector-curvature="0"
         d="m 70.091156,215.82302 q -0.831294,0.18611 -1.604686,0.2771 -0.769257,0.0951 -1.472341,0.0951 -1.306909,0 -1.935549,-0.47975 -0.62864,-0.48389 -0.62864,-1.48475 0,-0.24401 0.02895,-0.52111 0.02895,-0.28123 0.08685,-0.57901 0.132345,-0.66586 0.334999,-1.22006 0.202653,-0.55833 0.454937,-0.93468 0.244011,-0.36395 0.483887,-0.60797 0.244011,-0.24814 0.508702,-0.39703 0.34327,-0.19852 0.901602,-0.29778 0.562467,-0.0993 1.323452,-0.0993 0.823022,0 1.596415,0.0868 0.773392,0.0869 1.513699,0.26883 l -0.566603,2.08857 q -0.44253,-0.0786 -0.901602,-0.11993 -0.459073,-0.0414 -0.947096,-0.0414 -0.574875,0 -0.959503,0.13234 -0.380493,0.12821 -0.607961,0.3929 -0.194382,0.23988 -0.318456,0.55834 -0.119938,0.31845 -0.119938,0.57901 0,0.37222 0.281234,0.53351 0.281234,0.1613 0.938824,0.1613 0.488023,0 1.013268,-0.0662 0.529381,-0.0662 1.104256,-0.19852 z"
         style="font-style:normal;font-variant:normal;font-weight:normal;font-stretch:normal;font-family:'Incised901 NdIt BT';-inkscape-font-specification:'Incised901 NdIt BT';letter-spacing:0.0079375px;fill:#be2f26;fill-opacity:1;stroke-width:0.26458338"
         id="path3756" />
      <path
         inkscape:connector-curvature="0"
         d="m 70.942793,216.00913 1.683266,-6.29467 h 6.286399 l -0.541788,2.00999 h -3.618816 l -0.169567,0.63278 h 3.618815 l -0.363949,1.34827 h -3.610544 l -0.169567,0.63691 h 3.618815 l -0.450801,1.66672 z"
         style="font-style:normal;font-variant:normal;font-weight:normal;font-stretch:normal;font-family:'Incised901 NdIt BT';-inkscape-font-specification:'Incised901 NdIt BT';letter-spacing:0.0079375px;fill:#be2f26;fill-opacity:1;stroke-width:0.26458338"
         id="path3758" />
      <path
         inkscape:connector-curvature="0"
         d="m 78.312437,216.00913 1.683266,-6.29467 h 2.990175 l 0.450801,2.72135 q 0.01241,0.0827 0.04963,0.35154 0.03722,0.26469 0.09926,0.71549 0.07444,-0.38463 0.227468,-0.97191 0.02482,-0.0993 0.03722,-0.14475 l 0.719628,-2.67172 h 2.617954 l -1.687402,6.29467 h -2.961225 l -0.545924,-2.4153 q -0.04136,-0.18611 -0.09926,-0.4508 -0.05376,-0.26883 -0.111666,-0.57074 -0.07444,0.4508 -0.23574,1.04635 v 0.0124 l -0.653455,2.37808 z"
         style="font-style:normal;font-variant:normal;font-weight:normal;font-stretch:normal;font-family:'Incised901 NdIt BT';-inkscape-font-specification:'Incised901 NdIt BT';letter-spacing:0.0079375px;fill:#be2f26;fill-opacity:1;stroke-width:0.26458338"
         id="path3760" />
      <path
         inkscape:connector-curvature="0"
         d="m 91.662429,211.78235 -1.124934,4.22678 h -2.704806 l 1.12907,-4.22678 H 87.233 l 0.558331,-2.06789 h 6.063067 l -0.55006,2.06789 z"
         style="font-style:normal;font-variant:normal;font-weight:normal;font-stretch:normal;font-family:'Incised901 NdIt BT';-inkscape-font-specification:'Incised901 NdIt BT';letter-spacing:0.0079375px;fill:#be2f26;fill-opacity:1;stroke-width:0.26458338"
         id="path3762" />
      <path
         inkscape:connector-curvature="0"
         d="m 91.835799,216.00913 3.755296,-6.29467 h 4.503875 l -0.0331,6.29467 h -2.617951 l 0.0083,-0.91401 h -2.109252 l -0.533517,0.91401 z m 4.297085,-2.4732 h 1.389625 l 0.02482,-2.33672 z"
         style="font-style:normal;font-variant:normal;font-weight:normal;font-stretch:normal;font-family:'Incised901 NdIt BT';-inkscape-font-specification:'Incised901 NdIt BT';letter-spacing:0.0079375px;fill:#be2f26;fill-opacity:1;stroke-width:0.26458338"
         id="path3764" />
      <path
         inkscape:connector-curvature="0"
         d="m 102.18734,209.71446 h 2.67586 l -1.05049,3.91659 q -0.0372,0.13648 -0.0579,0.23988 -0.0166,0.0993 -0.0166,0.15716 0,0.22333 0.12821,0.335 0.13235,0.11166 0.3929,0.11166 0.335,0 0.54179,-0.19438 0.20679,-0.19438 0.31432,-0.61623 l 1.05049,-3.94968 h 2.68826 l -1.07116,3.96622 q -0.22747,0.86852 -0.41358,1.22833 -0.18611,0.35568 -0.45494,0.57488 -0.45494,0.35981 -1.17456,0.52938 -0.7155,0.1737 -1.79907,0.1737 -1.58815,0 -2.29537,-0.35154 -0.70308,-0.35568 -0.70308,-1.13734 0,-0.19852 0.0414,-0.43426 0.0414,-0.23988 0.15302,-0.64519 z"
         style="font-style:normal;font-variant:normal;font-weight:normal;font-stretch:normal;font-family:'Incised901 NdIt BT';-inkscape-font-specification:'Incised901 NdIt BT';letter-spacing:0.0079375px;fill:#be2f26;fill-opacity:1;stroke-width:0.26458338"
         id="path3766" />
      <path
         inkscape:connector-curvature="0"
         d="m 108.30384,216.00913 1.68326,-6.29467 h 5.02499 q 0.75271,0 1.11666,0.34741 0.36395,0.3474 0.36395,1.06703 0,1.12493 -0.5666,1.69567 -0.56247,0.56661 -1.67086,0.56661 h -0.14475 l 1.79079,2.61795 H 112.725 l -0.8313,-1.44753 q -0.0868,-0.14475 -0.16956,-0.31018 -0.0786,-0.16957 -0.18611,-0.41771 l -0.0248,0.11166 q -0.13648,0.60383 -0.15302,0.66586 l -0.37222,1.3979 z m 3.53196,-3.19283 h 0.88093 q 0.58728,0 0.85197,-0.19852 0.26469,-0.20265 0.26469,-0.64104 0,-0.24402 -0.14062,-0.35155 -0.14062,-0.11166 -0.4508,-0.11166 h -1.05049 z"
         style="font-style:normal;font-variant:normal;font-weight:normal;font-stretch:normal;font-family:'Incised901 NdIt BT';-inkscape-font-specification:'Incised901 NdIt BT';letter-spacing:0.0079375px;fill:#be2f26;fill-opacity:1;stroke-width:0.26458338"
         id="path3768" />
    </g>
  </g>
</svg>
