<?xml version="1.0" encoding="UTF-8" standalone="no"?>
<!-- Created with Inkscape (http://www.inkscape.org/) -->

<svg
   xmlns:dc="http://purl.org/dc/elements/1.1/"
   xmlns:cc="http://creativecommons.org/ns#"
   xmlns:rdf="http://www.w3.org/1999/02/22-rdf-syntax-ns#"
   xmlns:svg="http://www.w3.org/2000/svg"
   xmlns="http://www.w3.org/2000/svg"
   xmlns:xlink="http://www.w3.org/1999/xlink"
   xmlns:sodipodi="http://sodipodi.sourceforge.net/DTD/sodipodi-0.dtd"
   xmlns:inkscape="http://www.inkscape.org/namespaces/inkscape"
   width="146.24319mm"
   height="24.852571mm"
   viewBox="0 0 146.2432 24.852571"
   version="1.1"
   id="svg26792"
   inkscape:version="0.92.3 (2405546, 2018-03-11)"
   sodipodi:docname="hellhound-logotype.svg">
  <defs
     id="defs26786" />
  <sodipodi:namedview
     id="base"
     pagecolor="#ffffff"
     bordercolor="#666666"
     borderopacity="1.0"
     inkscape:pageopacity="0.0"
     inkscape:pageshadow="2"
     inkscape:zoom="1.4142136"
     inkscape:cx="297.84592"
     inkscape:cy="155.97276"
     inkscape:document-units="mm"
     inkscape:current-layer="layer1"
     showgrid="false"
     fit-margin-top="0"
     fit-margin-left="0"
     fit-margin-right="0"
     fit-margin-bottom="0"
     inkscape:window-width="2560"
     inkscape:window-height="1341"
     inkscape:window-x="2560"
     inkscape:window-y="28"
     inkscape:window-maximized="1"
     showguides="true"
     inkscape:guide-bbox="true"
     inkscape:snap-global="true">
    <sodipodi:guide
       position="63.331503,24.389555"
       orientation="0,1"
       id="guide1481"
       inkscape:locked="false" />
    <sodipodi:guide
       position="37.071606,0.94085639"
       orientation="0,1"
       id="guide1483"
       inkscape:locked="false" />
    <sodipodi:guide
       position="22.658893,24.194882"
       orientation="1,0"
       id="guide563034"
       inkscape:locked="false" />
  </sodipodi:namedview>
  <metadata
     id="metadata26789">
    <rdf:RDF>
      <cc:Work
         rdf:about="">
        <dc:format>image/svg+xml</dc:format>
        <dc:type
           rdf:resource="http://purl.org/dc/dcmitype/StillImage" />
        <dc:title></dc:title>
      </cc:Work>
    </rdf:RDF>
  </metadata>
  <g
     inkscape:label="Layer 1"
     inkscape:groupmode="layer"
     id="layer1"
     transform="translate(5.8284545,-137.77281)">
    <image
       sodipodi:absref="/home/kevin/git/centaur-trmn.github.io/assets/images/HMS-Hellhound-Ship-Crest-01.png"
       xlink:href="HMS-Hellhound-Ship-Crest-01.png"
       style="stroke-width:7.53744602"
       width="19.587198"
       height="24.852571"
       preserveAspectRatio="none"
       id="image1478"
       x="-5.8284545"
       y="137.77281" />
    <g
       transform="translate(-13.456331,59.616047)"
       aria-label="THE ROYAL MANTICORAN NAVY HMS HELLHOUND"
       style="font-style:normal;font-variant:normal;font-weight:normal;font-stretch:normal;font-size:8.47009563px;line-height:1;font-family:'Incised901 Nd BT';-inkscape-font-specification:'Incised901 Nd BT';letter-spacing:0.0079375px;word-spacing:0px;fill:#ff0000;fill-opacity:1;stroke:none;stroke-width:0.26458338"
       id="text3489">
      <path
         inkscape:connector-curvature="0"
         d="m 32.180961,85.109123 v -3.796654 h -1.894192 v -2.498016 h 7.039113 v 2.498016 h -1.898327 v 3.796654 z"
         style="letter-spacing:0.0079375px;fill:#000000;stroke-width:0.26458338"
         id="path3637" />
      <path
         inkscape:connector-curvature="0"
         d="m 38.012089,85.109123 v -6.29467 h 3.234187 v 2.204375 h 1.567464 v -2.204375 h 3.238322 v 6.29467 H 42.81374 v -1.947956 h -1.567464 v 1.947956 z"
         style="letter-spacing:0.0079375px;fill:#000000;stroke-width:0.26458338"
         id="path3639" />
      <path
         inkscape:connector-curvature="0"
         d="m 47.168392,85.109123 v -6.29467 h 7.030841 v 2.051351 h -3.862827 v 0.583146 h 3.862827 v 1.439255 h -3.862827 v 0.562467 h 3.862827 v 1.658451 z"
         style="letter-spacing:0.0079375px;fill:#000000;stroke-width:0.26458338"
         id="path3641" />
      <path
         inkscape:connector-curvature="0"
         d="m 62.185697,81.821171 h 0.620369 q 0.641047,0 0.909873,-0.15716 0.268826,-0.15716 0.268826,-0.529381 0,-0.31432 -0.231604,-0.438394 -0.231604,-0.128209 -0.880923,-0.128209 h -0.686541 z m -3.217644,3.287952 v -6.29467 h 6.063067 q 1.042219,0 1.575736,0.450801 0.533516,0.450801 0.533516,1.327588 0,0.835429 -0.492159,1.315181 -0.492158,0.479751 -1.47234,0.591417 l 2.212647,2.609683 H 63.653902 L 62.51656,83.645054 q -0.07031,-0.09512 -0.169567,-0.239876 -0.09926,-0.144752 -0.202654,-0.310184 0.02068,0.23574 0.02895,0.47148 0.01241,0.23574 0.01241,0.467344 v 1.075305 z"
         style="letter-spacing:0.0079375px;fill:#000000;stroke-width:0.26458338"
         id="path3643" />
      <path
         inkscape:connector-curvature="0"
         d="m 72.016135,83.421721 q 0.479751,0 0.748578,-0.347406 0.268826,-0.347406 0.268826,-0.97191 0,-0.653455 -0.256419,-0.980182 -0.252283,-0.330863 -0.760985,-0.330863 -0.508702,0 -0.765121,0.330863 -0.252283,0.326727 -0.252283,0.980182 0,0.62864 0.26469,0.976046 0.268827,0.34327 0.752714,0.34327 z m 0,1.881784 q -2.183697,0 -3.238323,-0.818886 -1.054626,-0.823022 -1.054626,-2.526967 0,-1.695673 1.05049,-2.51456 1.054627,-0.823022 3.242459,-0.823022 2.187832,0 3.242458,0.823022 1.058762,0.818887 1.058762,2.51456 0,1.703945 -1.058762,2.526967 -1.054626,0.818886 -3.242458,0.818886 z"
         style="letter-spacing:0.0079375px;fill:#000000;stroke-width:0.26458338"
         id="path3645" />
      <path
         inkscape:connector-curvature="0"
         d="m 78.695099,85.109123 v -1.83629 l -2.746164,-4.45838 h 3.581593 l 0.541789,1.211786 q 0.08685,0.190246 0.161295,0.397035 0.07445,0.202654 0.136481,0.425987 0.08272,-0.326728 0.144753,-0.541789 0.06617,-0.215061 0.09926,-0.289505 l 0.516974,-1.203514 h 3.440976 l -2.667584,4.429429 v 1.865241 z"
         style="letter-spacing:0.0079375px;fill:#000000;stroke-width:0.26458338"
         id="path3647" />
      <path
         inkscape:connector-curvature="0"
         d="m 87.363376,82.553206 h 1.306909 l -0.397036,-1.220058 q -0.07858,-0.248147 -0.144752,-0.521109 -0.06204,-0.272962 -0.111667,-0.574875 -0.05376,0.322591 -0.115802,0.599689 -0.06204,0.272962 -0.136481,0.496295 z m -3.871099,2.555917 2.034808,-6.29467 h 4.971219 l 2.043079,6.29467 h -3.27968 l -0.244012,-0.81475 h -2.001722 l -0.260554,0.81475 z"
         style="letter-spacing:0.0079375px;fill:#000000;stroke-width:0.26458338"
         id="path3649" />
      <path
         inkscape:connector-curvature="0"
         d="m 93.012533,85.109123 v -6.29467 h 3.234187 v 4.048937 h 2.688263 v 2.245733 z"
         style="letter-spacing:0.0079375px;fill:#000000;stroke-width:0.26458338"
         id="path3651" />
      <path
         inkscape:connector-curvature="0"
         d="m 33.632622,90.063798 q 0.01654,0.272962 0.02482,0.533517 0.0083,0.256419 0.0083,0.574875 v 2.407029 H 30.70862 v -6.294671 h 4.015851 l 0.645183,2.138203 q 0.01241,0.04549 0.04136,0.140617 0.190246,0.641047 0.260554,1.000861 0.06617,-0.306049 0.264691,-0.976046 l 0.04136,-0.140617 0.636911,-2.163018 h 4.019987 v 6.294671 H 37.68156 v -2.369807 q 0,-0.186111 0.0041,-0.475616 0.0083,-0.289505 0.02068,-0.665862 -0.07445,0.260555 -0.153025,0.52111 -0.07858,0.256418 -0.194382,0.599689 l -0.806479,2.390486 h -1.761846 l -0.827157,-2.431844 q -0.103395,-0.306048 -0.181975,-0.562467 -0.07858,-0.260555 -0.148889,-0.52111 z"
         style="letter-spacing:0.0079375px;fill:#000000;stroke-width:0.26458338"
         id="path3653" />
      <path
         inkscape:connector-curvature="0"
         d="m 44.976757,91.023301 h 1.306909 l -0.397035,-1.220057 q -0.07858,-0.248148 -0.144753,-0.52111 -0.06204,-0.272962 -0.111666,-0.574874 -0.05377,0.322591 -0.115802,0.599689 -0.06204,0.272962 -0.136481,0.496295 z m -3.871098,2.555918 2.034808,-6.294671 h 4.971218 l 2.04308,6.294671 h -3.279681 l -0.244011,-0.814751 h -2.001722 l -0.260555,0.814751 z"
         style="letter-spacing:0.0079375px;fill:#000000;stroke-width:0.26458338"
         id="path3655" />
      <path
         inkscape:connector-curvature="0"
         d="m 50.625911,93.579219 v -6.294671 h 3.225916 l 1.211786,1.745303 q 0.198518,0.297777 0.326727,0.504566 0.12821,0.20679 0.239876,0.409443 -0.0041,-0.210925 -0.0083,-0.434257 0,-0.223333 0,-0.587282 V 87.284548 H 58.6907 v 6.294671 H 55.878363 L 54.207505,91.48651 q -0.169568,-0.219197 -0.310185,-0.430122 -0.136481,-0.210926 -0.248147,-0.421851 0.02068,0.318456 0.02895,0.587282 0.01241,0.264691 0.01241,0.3929 v 1.9645 z"
         style="letter-spacing:0.0079375px;fill:#000000;stroke-width:0.26458338"
         id="path3657" />
      <path
         inkscape:connector-curvature="0"
         d="m 61.271098,93.579219 v -3.796654 h -1.894191 v -2.498017 h 7.039112 v 2.498017 h -1.898327 v 3.796654 z"
         style="letter-spacing:0.0079375px;fill:#000000;stroke-width:0.26458338"
         id="path3659" />
      <path
         inkscape:connector-curvature="0"
         d="m 67.110496,93.579219 v -6.294671 h 3.254865 v 6.294671 z"
         style="letter-spacing:0.0079375px;fill:#000000;stroke-width:0.26458338"
         id="path3661" />
      <path
         inkscape:connector-curvature="0"
         d="m 78.491854,93.426195 q -0.843701,0.173703 -1.596415,0.260554 -0.752713,0.08685 -1.418575,0.08685 -2.138203,0 -3.196965,-0.831294 -1.054626,-0.831293 -1.054626,-2.514559 0,-1.674995 1.062897,-2.493881 1.062898,-0.818886 3.230052,-0.818886 0.583146,0 1.306909,0.06617 0.727899,0.06617 1.666723,0.20679 v 2.473202 q -0.665862,-0.115802 -1.211786,-0.169568 -0.545924,-0.0579 -0.963639,-0.0579 -0.872652,0 -1.298638,0.244012 -0.42185,0.239876 -0.42185,0.73617 0,0.459073 0.363949,0.686541 0.368085,0.227469 1.10012,0.227469 0.620368,0 1.224193,-0.07031 0.603826,-0.07444 1.207651,-0.223332 z"
         style="letter-spacing:0.0079375px;fill:#000000;stroke-width:0.26458338"
         id="path3663" />
      <path
         inkscape:connector-curvature="0"
         d="m 83.466876,91.891817 q 0.479751,0 0.748578,-0.347406 0.268826,-0.347407 0.268826,-0.971911 0,-0.653454 -0.256419,-0.980182 -0.252283,-0.330863 -0.760985,-0.330863 -0.508702,0 -0.765121,0.330863 -0.252283,0.326728 -0.252283,0.980182 0,0.62864 0.26469,0.976047 0.268826,0.34327 0.752714,0.34327 z m 0,1.881784 q -2.183697,0 -3.238323,-0.818886 -1.054626,-0.823022 -1.054626,-2.526967 0,-1.695674 1.05049,-2.51456 1.054626,-0.823022 3.242459,-0.823022 2.187832,0 3.242458,0.823022 1.058762,0.818886 1.058762,2.51456 0,1.703945 -1.058762,2.526967 -1.054626,0.818886 -3.242458,0.818886 z"
         style="letter-spacing:0.0079375px;fill:#000000;stroke-width:0.26458338"
         id="path3665" />
      <path
         inkscape:connector-curvature="0"
         d="m 91.833242,90.291267 h 0.620368 q 0.641048,0 0.909874,-0.15716 0.268826,-0.15716 0.268826,-0.529381 0,-0.31432 -0.231604,-0.438394 -0.231604,-0.128209 -0.880923,-0.128209 h -0.686541 z m -3.217644,3.287952 v -6.294671 h 6.063067 q 1.042219,0 1.575735,0.450801 0.533517,0.450801 0.533517,1.327588 0,0.83543 -0.492159,1.315181 -0.492159,0.479752 -1.472341,0.591418 l 2.212647,2.609683 H 93.301447 L 92.164105,92.11515 q -0.07031,-0.09512 -0.169567,-0.239876 -0.09926,-0.144753 -0.202654,-0.310184 0.02068,0.23574 0.02895,0.47148 0.01241,0.23574 0.01241,0.467344 v 1.075305 z"
         style="letter-spacing:0.0079375px;fill:#000000;stroke-width:0.26458338"
         id="path3667" />
      <path
         inkscape:connector-curvature="0"
         d="m 100.84893,91.023301 h 1.3069 l -0.39703,-1.220057 q -0.0786,-0.248148 -0.14475,-0.52111 -0.062,-0.272962 -0.11167,-0.574874 -0.0538,0.322591 -0.1158,0.599689 -0.062,0.272962 -0.13648,0.496295 z m -3.871103,2.555918 2.034808,-6.294671 h 4.971215 l 2.04308,6.294671 h -3.27968 l -0.24401,-0.814751 h -2.00172 l -0.26056,0.814751 z"
         style="letter-spacing:0.0079375px;fill:#000000;stroke-width:0.26458338"
         id="path3669" />
      <path
         inkscape:connector-curvature="0"
         d="m 106.49808,93.579219 v -6.294671 h 3.22591 l 1.21179,1.745303 q 0.19852,0.297777 0.32673,0.504566 0.12821,0.20679 0.23987,0.409443 -0.004,-0.210925 -0.008,-0.434257 0,-0.223333 0,-0.587282 v -1.637773 h 3.06876 v 6.294671 h -2.81234 l -1.67086,-2.092709 q -0.16957,-0.219197 -0.31018,-0.430122 -0.13648,-0.210926 -0.24815,-0.421851 0.0207,0.318456 0.029,0.587282 0.0124,0.264691 0.0124,0.3929 v 1.9645 z"
         style="letter-spacing:0.0079375px;fill:#000000;stroke-width:0.26458338"
         id="path3671" />
      <path
         inkscape:connector-curvature="0"
         d="m 119.56651,93.579219 v -6.294671 h 3.22591 l 1.21179,1.745303 q 0.19852,0.297777 0.32673,0.504566 0.12821,0.20679 0.23987,0.409443 -0.004,-0.210925 -0.008,-0.434257 0,-0.223333 0,-0.587282 v -1.637773 h 3.06876 v 6.294671 h -2.81234 L 123.1481,91.48651 q -0.16957,-0.219197 -0.31018,-0.430122 -0.13649,-0.210926 -0.24815,-0.421851 0.0207,0.318456 0.0289,0.587282 0.0124,0.264691 0.0124,0.3929 v 1.9645 z"
         style="letter-spacing:0.0079375px;fill:#000000;stroke-width:0.26458338"
         id="path3673" />
      <path
         inkscape:connector-curvature="0"
         d="m 131.96527,91.023301 h 1.30691 l -0.39704,-1.220057 q -0.0786,-0.248148 -0.14475,-0.52111 -0.062,-0.272962 -0.11167,-0.574874 -0.0538,0.322591 -0.1158,0.599689 -0.062,0.272962 -0.13648,0.496295 z m -3.8711,2.555918 2.03481,-6.294671 h 4.97121 l 2.04308,6.294671 h -3.27968 l -0.24401,-0.814751 h -2.00172 l -0.26055,0.814751 z"
         style="letter-spacing:0.0079375px;fill:#000000;stroke-width:0.26458338"
         id="path3675" />
      <path
         inkscape:connector-curvature="0"
         d="m 138.6401,93.579219 -2.03481,-6.294671 h 3.34585 l 0.76099,2.866102 q 0.0744,0.260555 0.13648,0.57901 0.0662,0.31432 0.13648,0.723763 0.0414,-0.334999 0.10339,-0.661726 0.062,-0.326727 0.14062,-0.641047 l 0.73617,-2.866102 h 3.27968 l -1.99758,6.294671 z"
         style="letter-spacing:0.0079375px;fill:#000000;stroke-width:0.26458338"
         id="path3677" />
      <path
         inkscape:connector-curvature="0"
         d="m 147.91319,93.579219 v -1.83629 l -2.74616,-4.458381 h 3.58159 l 0.54179,1.211786 q 0.0868,0.190247 0.1613,0.397036 0.0744,0.202654 0.13648,0.425986 0.0827,-0.326727 0.14475,-0.541788 0.0662,-0.215061 0.0993,-0.289505 l 0.51697,-1.203515 h 3.44098 l -2.66759,4.42943 v 1.865241 z"
         style="letter-spacing:0.0079375px;fill:#000000;stroke-width:0.26458338"
         id="path3679" />
      <path
         inkscape:connector-curvature="0"
         d="m 29.906277,102.04931 1.683266,-6.294666 h 2.675855 l -0.599689,2.245733 h 1.575735 l 0.607961,-2.245733 h 2.675856 l -1.683266,6.294666 H 34.166139 L 34.7741,99.770495 h -1.584007 l -0.607961,2.278815 z"
         style="font-style:normal;font-variant:normal;font-weight:normal;font-stretch:normal;font-family:'Incised901 NdIt BT';-inkscape-font-specification:'Incised901 NdIt BT';letter-spacing:0.0079375px;fill:#be2f26;fill-opacity:1;stroke-width:0.26458338"
         id="path3681" />
      <path
         inkscape:connector-curvature="0"
         d="m 41.506831,98.397413 q -0.07031,0.351542 -0.140617,0.653455 -0.07031,0.301912 -0.136481,0.550059 l -0.653455,2.448383 h -2.555917 l 1.683266,-6.294666 h 3.507149 l 0.07858,2.316042 q 0.0041,0.09099 0.0041,0.194382 0.0041,0.09926 0.0041,0.285369 0,0.140617 -0.0041,0.28537 -0.0041,0.140616 -0.01654,0.297776 0.06617,-0.144752 0.161296,-0.326727 0.09512,-0.18611 0.248147,-0.450801 l 1.505428,-2.601411 h 3.602272 l -1.687402,6.294666 h -2.547646 l 0.686541,-2.593135 q 0.01241,-0.0579 0.07031,-0.248147 0.0579,-0.190247 0.231604,-0.75685 l -0.136481,0.227469 q -0.322591,0.541788 -0.463208,0.760985 l -1.670859,2.609678 h -1.455797 l -0.227469,-2.473197 q -0.01654,-0.148889 -0.03722,-0.397036 -0.01654,-0.248147 -0.04963,-0.781664 z"
         style="font-style:normal;font-variant:normal;font-weight:normal;font-stretch:normal;font-family:'Incised901 NdIt BT';-inkscape-font-specification:'Incised901 NdIt BT';letter-spacing:0.0079375px;fill:#be2f26;fill-opacity:1;stroke-width:0.26458338"
         id="path3683" />
      <path
         inkscape:connector-curvature="0"
         d="m 48.578696,100.29574 q 0.806479,0.1158 1.410304,0.16957 0.603825,0.0496 1.079441,0.0496 0.756849,0 1.025676,-0.0868 0.272962,-0.0869 0.272962,-0.31019 0,-0.153023 -0.09099,-0.219196 -0.09099,-0.07031 -0.301912,-0.07031 -0.301913,0 -0.649319,0.0083 -0.09512,0 -0.119938,0 -1.195243,0 -1.670859,-0.322591 -0.47148,-0.322592 -0.47148,-1.10012 0,-0.595554 0.231605,-1.1787 0.231604,-0.583146 0.616232,-0.963639 0.368085,-0.363949 1.046355,-0.525245 0.682405,-0.161296 1.927277,-0.161296 0.802343,0 1.666723,0.07031 0.86438,0.06617 1.770118,0.202654 l -0.525245,1.997586 q -0.587282,-0.115803 -1.10012,-0.173704 -0.508702,-0.06204 -0.947096,-0.06204 -0.996725,0 -1.36481,0.09926 -0.36395,0.09926 -0.36395,0.339134 0,0.153024 0.103395,0.210925 0.103395,0.05377 0.554196,0.05377 h 1.017404 q 0.897466,0 1.302773,0.301912 0.409444,0.301913 0.409444,0.959503 0,0.616237 -0.194382,1.133207 -0.194383,0.51697 -0.541789,0.83957 -0.384628,0.36395 -1.033947,0.52938 -0.645183,0.16543 -1.687402,0.16543 -0.914009,0 -1.865241,-0.0827 -0.951231,-0.0827 -1.927277,-0.24814 z"
         style="font-style:normal;font-variant:normal;font-weight:normal;font-stretch:normal;font-family:'Incised901 NdIt BT';-inkscape-font-specification:'Incised901 NdIt BT';letter-spacing:0.0079375px;fill:#be2f26;fill-opacity:1;stroke-width:0.26458338"
         id="path3685" />
      <path
         inkscape:connector-curvature="0"
         d="m 59.517189,102.04931 1.683266,-6.294666 h 2.675855 l -0.599689,2.245733 h 1.575736 l 0.607961,-2.245733 h 2.675855 l -1.683266,6.294666 h -2.675855 l 0.607961,-2.278815 h -1.584008 l -0.607961,2.278815 z"
         style="font-style:normal;font-variant:normal;font-weight:normal;font-stretch:normal;font-family:'Incised901 NdIt BT';-inkscape-font-specification:'Incised901 NdIt BT';letter-spacing:0.0079375px;fill:#be2f26;fill-opacity:1;stroke-width:0.26458338"
         id="path3687" />
      <path
         inkscape:connector-curvature="0"
         d="m 67.614731,102.04931 1.683266,-6.294666 h 6.286399 l -0.541788,2.009993 h -3.618816 l -0.169567,0.632776 h 3.618815 l -0.363949,1.348267 h -3.610544 l -0.169567,0.63691 h 3.618815 l -0.450801,1.66672 z"
         style="font-style:normal;font-variant:normal;font-weight:normal;font-stretch:normal;font-family:'Incised901 NdIt BT';-inkscape-font-specification:'Incised901 NdIt BT';letter-spacing:0.0079375px;fill:#be2f26;fill-opacity:1;stroke-width:0.26458338"
         id="path3689" />
      <path
         inkscape:connector-curvature="0"
         d="m 74.984371,102.04931 1.683266,-6.294666 h 2.70067 l -1.091848,4.082023 h 2.576597 l -0.595554,2.212643 z"
         style="font-style:normal;font-variant:normal;font-weight:normal;font-stretch:normal;font-family:'Incised901 NdIt BT';-inkscape-font-specification:'Incised901 NdIt BT';letter-spacing:0.0079375px;fill:#be2f26;fill-opacity:1;stroke-width:0.26458338"
         id="path3691" />
      <path
         inkscape:connector-curvature="0"
         d="m 80.98093,102.04931 1.683266,-6.294666 h 2.700671 l -1.091849,4.082023 h 2.576597 l -0.595554,2.212643 z"
         style="font-style:normal;font-variant:normal;font-weight:normal;font-stretch:normal;font-family:'Incised901 NdIt BT';-inkscape-font-specification:'Incised901 NdIt BT';letter-spacing:0.0079375px;fill:#be2f26;fill-opacity:1;stroke-width:0.26458338"
         id="path3693" />
      <path
         inkscape:connector-curvature="0"
         d="m 86.977489,102.04931 1.683267,-6.294666 h 2.675855 l -0.599689,2.245733 h 1.575735 l 0.607961,-2.245733 h 2.675855 l -1.683266,6.294666 h -2.675855 l 0.607961,-2.278815 h -1.584007 l -0.607961,2.278815 z"
         style="font-style:normal;font-variant:normal;font-weight:normal;font-stretch:normal;font-family:'Incised901 NdIt BT';-inkscape-font-specification:'Incised901 NdIt BT';letter-spacing:0.0079375px;fill:#be2f26;fill-opacity:1;stroke-width:0.26458338"
         id="path3695" />
      <path
         inkscape:connector-curvature="0"
         d="m 99.570634,97.764637 q -0.301913,0 -0.529381,0.115802 -0.223333,0.111667 -0.368085,0.339135 -0.202654,0.322592 -0.347407,0.81475 -0.144752,0.488023 -0.144752,0.856109 0,0.272957 0.223332,0.417717 0.227469,0.14061 0.657591,0.14061 0.268826,0 0.47148,-0.0827 0.202653,-0.0827 0.34327,-0.24815 0.115802,-0.13648 0.202658,-0.314319 0.0868,-0.177839 0.16956,-0.446665 0.0951,-0.306048 0.14476,-0.541788 0.0496,-0.239876 0.0496,-0.409444 0,-0.322591 -0.2192,-0.479751 -0.21506,-0.161296 -0.653456,-0.161296 z m -4.098567,2.411163 q 0,-0.215059 0.02482,-0.450799 0.02481,-0.23574 0.07444,-0.496295 0.140617,-0.711355 0.351542,-1.290366 0.210925,-0.583146 0.454937,-0.938824 0.347406,-0.50043 0.732034,-0.798207 0.384629,-0.297777 0.851973,-0.430122 0.417715,-0.111666 0.909873,-0.165432 0.492159,-0.05376 1.104256,-0.05376 0.918148,0 1.530238,0.119938 0.61624,0.119938 1.0629,0.380493 0.36395,0.215061 0.53765,0.620368 0.17371,0.405307 0.17371,1.038083 0,0.359814 -0.0579,0.744442 -0.0538,0.384628 -0.16957,0.798207 -0.17371,0.641047 -0.43426,1.158024 -0.25642,0.51284 -0.60796,0.90988 -0.43839,0.48802 -1.19111,0.70722 -0.75271,0.21506 -2.063756,0.21506 -1.799068,0 -2.54351,-0.47148 -0.740306,-0.47148 -0.740306,-1.59642 z"
         style="font-style:normal;font-variant:normal;font-weight:normal;font-stretch:normal;font-family:'Incised901 NdIt BT';-inkscape-font-specification:'Incised901 NdIt BT';letter-spacing:0.0079375px;fill:#be2f26;fill-opacity:1;stroke-width:0.26458338"
         id="path3697" />
      <path
         inkscape:connector-curvature="0"
         d="m 104.80621,95.754644 h 2.67585 l -1.05049,3.916592 q -0.0372,0.136481 -0.0579,0.239876 -0.0165,0.09926 -0.0165,0.157158 0,0.22333 0.12821,0.335 0.13234,0.11167 0.3929,0.11167 0.335,0 0.54179,-0.19439 0.20679,-0.19438 0.31432,-0.616228 l 1.05049,-3.949678 h 2.68826 l -1.07117,3.966221 q -0.22747,0.868515 -0.41358,1.228325 -0.18611,0.35568 -0.45494,0.57488 -0.45493,0.35981 -1.17456,0.52938 -0.71549,0.1737 -1.79907,0.1737 -1.58814,0 -2.29536,-0.35154 -0.70309,-0.35568 -0.70309,-1.13734 0,-0.19852 0.0414,-0.43426 0.0414,-0.23987 0.15303,-0.645181 z"
         style="font-style:normal;font-variant:normal;font-weight:normal;font-stretch:normal;font-family:'Incised901 NdIt BT';-inkscape-font-specification:'Incised901 NdIt BT';letter-spacing:0.0079375px;fill:#be2f26;fill-opacity:1;stroke-width:0.26458338"
         id="path3699" />
      <path
         inkscape:connector-curvature="0"
         d="m 110.9227,102.04931 1.68327,-6.294666 h 2.99017 l 0.45081,2.721349 q 0.0124,0.08272 0.0496,0.351542 0.0372,0.26469 0.0993,0.715491 0.0744,-0.384628 0.22747,-0.97191 0.0248,-0.09926 0.0372,-0.144753 l 0.71963,-2.671719 h 2.61796 l -1.68741,6.294666 h -2.96122 l -0.54593,-2.415296 q -0.0413,-0.186111 -0.0992,-0.450801 -0.0538,-0.268826 -0.11167,-0.570739 -0.0744,0.450801 -0.23574,1.046355 v 0.01241 l -0.65345,2.378071 z"
         style="font-style:normal;font-variant:normal;font-weight:normal;font-stretch:normal;font-family:'Incised901 NdIt BT';-inkscape-font-specification:'Incised901 NdIt BT';letter-spacing:0.0079375px;fill:#be2f26;fill-opacity:1;stroke-width:0.26458338"
         id="path3701" />
      <path
         inkscape:connector-curvature="0"
         d="m 122.40745,100.30401 h 0.47562 q 0.49216,0 0.74858,-0.0703 0.26055,-0.0744 0.41358,-0.244008 0.23574,-0.268827 0.3929,-0.698949 0.15716,-0.430122 0.15716,-0.81475 0,-0.388764 -0.18198,-0.533517 -0.18197,-0.144752 -0.71549,-0.144752 h -0.62037 z m -3.13906,1.7453 1.68327,-6.294666 h 4.04066 q 0.48389,0 0.84784,0.03309 0.36395,0.02895 0.52524,0.07858 0.57074,0.190246 0.81889,0.579011 0.24815,0.388764 0.24815,1.095984 0,0.281233 -0.0496,0.62864 -0.0455,0.347406 -0.13648,0.744442 -0.15303,0.641047 -0.35154,1.145609 -0.19852,0.50043 -0.42186,0.81061 -0.30191,0.42599 -0.65759,0.68655 -0.35567,0.25641 -0.78993,0.36395 -0.28951,0.0703 -0.60383,0.10339 -0.31018,0.0331 -0.69894,0.0331 -0.1034,0 -0.30605,-0.004 -0.19852,-0.004 -0.29778,-0.004 z"
         style="font-style:normal;font-variant:normal;font-weight:normal;font-stretch:normal;font-family:'Incised901 NdIt BT';-inkscape-font-specification:'Incised901 NdIt BT';letter-spacing:0.0079375px;fill:#be2f26;fill-opacity:1;stroke-width:0.26458338"
         id="path3703" />
    </g>
  </g>
</svg>
