<?xml version="1.0" encoding="UTF-8" standalone="no"?>
<!-- Created with Inkscape (http://www.inkscape.org/) -->

<svg
   xmlns:dc="http://purl.org/dc/elements/1.1/"
   xmlns:cc="http://creativecommons.org/ns#"
   xmlns:rdf="http://www.w3.org/1999/02/22-rdf-syntax-ns#"
   xmlns:svg="http://www.w3.org/2000/svg"
   xmlns="http://www.w3.org/2000/svg"
   xmlns:sodipodi="http://sodipodi.sourceforge.net/DTD/sodipodi-0.dtd"
   xmlns:inkscape="http://www.inkscape.org/namespaces/inkscape"
   width="123.59138mm"
   height="15.147397mm"
   viewBox="0 0 123.59138 15.147397"
   version="1.1"
   id="svg26792"
   inkscape:version="0.92.3 (2405546, 2018-03-11)"
   sodipodi:docname="trmn-logotype-dualline-alt.svg">
  <defs
     id="defs26786" />
  <sodipodi:namedview
     id="base"
     pagecolor="#ffffff"
     bordercolor="#666666"
     borderopacity="1.0"
     inkscape:pageopacity="0.0"
     inkscape:pageshadow="2"
     inkscape:zoom="2.8"
     inkscape:cx="273.34592"
     inkscape:cy="-59.686613"
     inkscape:document-units="mm"
     inkscape:current-layer="g26727"
     showgrid="false"
     fit-margin-top="0"
     fit-margin-left="0"
     fit-margin-right="0"
     fit-margin-bottom="0"
     inkscape:window-width="2560"
     inkscape:window-height="1341"
     inkscape:window-x="2560"
     inkscape:window-y="28"
     inkscape:window-maximized="1" />
  <metadata
     id="metadata26789">
    <rdf:RDF>
      <cc:Work
         rdf:about="">
        <dc:format>image/svg+xml</dc:format>
        <dc:type
           rdf:resource="http://purl.org/dc/dcmitype/StillImage" />
        <dc:title></dc:title>
      </cc:Work>
    </rdf:RDF>
  </metadata>
  <g
     inkscape:label="Layer 1"
     inkscape:groupmode="layer"
     id="layer1"
     transform="translate(-16.823359,-138.23583)">
    <g
       transform="matrix(0.3527778,0,0,0.3527778,-23.844046,-108.37504)"
       id="g26727">
      <g
         transform="translate(184.2303,717.44501)"
         style="fill:#211e1e;fill-opacity:1"
         id="use21677">
        <path
           inkscape:connector-curvature="0"
           style="stroke:none"
           d=""
           id="path26667" />
      </g>
      <g
         id="g27530"
         transform="translate(77.916689)">
        <g
           id="use21669"
           style="fill:#211e1e;fill-opacity:1"
           transform="translate(114.9183,717.44501)">
          <path
             id="path26675"
             d="m 5.734375,0 v -10.765625 h -5.375 V -17.84375 H 20.3125 v 7.078125 h -5.375 V 0 Z m 0,0"
             style="stroke:none"
             inkscape:connector-curvature="0" />
        </g>
        <g
           id="use21673"
           style="fill:#211e1e;fill-opacity:1"
           transform="translate(135.3663,717.44501)">
          <path
             id="path26659"
             d="m 1.5625,0 v -17.84375 h 9.15625 v 6.25 h 4.453125 v -6.25 H 24.34375 V 0 H 15.171875 V -5.515625 H 10.71875 V 0 Z m 0,0"
             style="stroke:none"
             inkscape:connector-curvature="0" />
        </g>
        <g
           id="use21675"
           style="fill:#211e1e;fill-opacity:1"
           transform="translate(161.2623,717.44501)">
          <path
             id="path26663"
             d="m 1.5625,0 v -17.84375 h 19.921875 v 5.8125 H 10.53125 v 1.65625 h 10.953125 v 4.078125 H 10.53125 v 1.59375 H 21.484375 V 0 Z m 0,0"
             style="stroke:none"
             inkscape:connector-curvature="0" />
        </g>
        <g
           id="use21679"
           style="fill:#211e1e;fill-opacity:1"
           transform="translate(195.22229,717.44501)">
          <path
             id="path26671"
             d="M 10.671875,-9.3125 H 12.4375 c 1.207031,0 2.066406,-0.144531 2.578125,-0.4375 0.507813,-0.300781 0.765625,-0.804688 0.765625,-1.515625 0,-0.59375 -0.21875,-1.007813 -0.65625,-1.25 -0.4375,-0.238281 -1.273438,-0.359375 -2.5,-0.359375 H 10.671875 Z M 1.5625,0 v -17.84375 h 17.171875 c 1.96875,0 3.457031,0.429688 4.46875,1.28125 1.007813,0.855469 1.515625,2.109375 1.515625,3.765625 0,1.574219 -0.46875,2.8125 -1.40625,3.71875 -0.929688,0.90625 -2.3125,1.46875 -4.15625,1.6875 L 25.421875,0 H 14.84375 l -3.234375,-4.15625 c -0.125,-0.175781 -0.28125,-0.398438 -0.46875,-0.671875 -0.1875,-0.269531 -0.382813,-0.5625 -0.578125,-0.875 0.03906,0.4375 0.06641,0.882813 0.07813,1.328125 0.01953,0.449219 0.03125,0.890625 0.03125,1.328125 V 0 Z m 0,0"
             style="stroke:none"
             inkscape:connector-curvature="0" />
        </g>
        <g
           id="use21683"
           style="fill:#211e1e;fill-opacity:1"
           transform="translate(220.5423,717.44501)">
          <path
             id="path26655"
             d="m 13.015625,-4.78125 c 0.90625,0 1.609375,-0.328125 2.109375,-0.984375 0.507812,-0.65625 0.765625,-1.570313 0.765625,-2.75 0,-1.238281 -0.242187,-2.164063 -0.71875,-2.78125 -0.480469,-0.625 -1.199219,-0.9375 -2.15625,-0.9375 -0.96875,0 -1.695313,0.3125 -2.171875,0.9375 -0.480469,0.617187 -0.71875,1.542969 -0.71875,2.78125 0,1.1875 0.25,2.109375 0.75,2.765625 0.507812,0.648438 1.222656,0.96875 2.140625,0.96875 z m 0,5.328125 c -4.125,0 -7.1875,-0.773437 -9.1875,-2.328125 C 1.835938,-3.332031 0.84375,-5.71875 0.84375,-8.9375 c 0,-3.195312 0.992188,-5.570312 2.984375,-7.125 1.988281,-1.550781 5.050781,-2.328125 9.1875,-2.328125 4.125,0 7.1875,0.777344 9.1875,2.328125 2,1.554688 3,3.929688 3,7.125 0,3.21875 -1,5.605469 -3,7.15625 -2,1.554688 -5.0625,2.328125 -9.1875,2.328125 z m 0,0"
             style="stroke:none"
             inkscape:connector-curvature="0" />
        </g>
        <g
           id="use21687"
           style="fill:#211e1e;fill-opacity:1"
           transform="translate(245.98228,717.44501)">
          <path
             id="path26651"
             d="M 6.296875,0 V -5.203125 L -1.484375,-17.84375 H 8.65625 l 1.546875,3.4375 c 0.15625,0.367188 0.300781,0.742188 0.4375,1.125 0.144531,0.386719 0.28125,0.789062 0.40625,1.203125 0.15625,-0.613281 0.289063,-1.125 0.40625,-1.53125 0.125,-0.40625 0.21875,-0.675781 0.28125,-0.8125 l 1.46875,-3.421875 h 9.75 l -7.5625,12.5625 V 0 Z m 0,0"
             style="stroke:none"
             inkscape:connector-curvature="0" />
        </g>
        <g
           id="use21691"
           style="fill:#211e1e;fill-opacity:1"
           transform="translate(266.23828,717.44501)">
          <path
             id="path26647"
             d="m 10.703125,-7.25 h 3.703125 l -1.125,-3.453125 C 13.132812,-11.171875 13,-11.660156 12.875,-12.171875 c -0.125,-0.519531 -0.234375,-1.066406 -0.328125,-1.640625 -0.09375,0.617188 -0.203125,1.183594 -0.328125,1.703125 -0.117188,0.523437 -0.242188,0.992187 -0.375,1.40625 z M -0.265625,0 5.5,-17.84375 H 19.578125 L 25.375,0 h -9.296875 l -0.6875,-2.3125 H 9.71875 L 8.984375,0 Z m 0,0"
             style="stroke:none"
             inkscape:connector-curvature="0" />
        </g>
        <g
           id="use21695"
           style="fill:#211e1e;fill-opacity:1"
           transform="translate(291.43829,717.44501)">
          <path
             id="path26643"
             d="m 1.5625,0 v -17.84375 h 9.15625 v 11.484375 h 7.625 V 0 Z m 0,0"
             style="stroke:none"
             inkscape:connector-curvature="0" />
        </g>
      </g>
      <g
         transform="translate(114.9183,741.44501)"
         style="fill:#211e1e;fill-opacity:1"
         id="use21699">
        <path
           inkscape:connector-curvature="0"
           style="stroke:none"
           d="m 9.84375,-9.96875 c 0.03125,0.523438 0.050781,1.027344 0.0625,1.515625 0.019531,0.492187 0.03125,1.03125 0.03125,1.625 V 0 h -8.375 v -17.84375 h 11.375 l 1.828125,6.0625 c 0.01953,0.08594 0.0625,0.21875 0.125,0.40625 0.351563,1.210938 0.597656,2.152344 0.734375,2.828125 0.125,-0.570313 0.375,-1.492187 0.75,-2.765625 l 0.109375,-0.390625 1.8125,-6.140625 H 29.6875 V 0 h -8.375 v -6.71875 c 0,-0.351562 0.0039,-0.800781 0.01563,-1.34375 0.01953,-0.550781 0.03906,-1.179688 0.0625,-1.890625 -0.148437,0.492187 -0.292969,0.980469 -0.4375,1.46875 -0.148442,0.492187 -0.32813,1.058594 -0.54688,1.703125 L 18.125,0 h -5 L 10.78125,-6.890625 C 10.582031,-7.472656 10.410156,-8.003906 10.265625,-8.484375 10.117188,-8.972656 9.976562,-9.46875 9.84375,-9.96875 Z m 0,0"
           id="path26639" />
      </g>
      <g
         transform="translate(146.2623,741.44501)"
         style="fill:#211e1e;fill-opacity:1"
         id="use21703">
        <path
           inkscape:connector-curvature="0"
           style="stroke:none"
           d="m 10.703125,-7.25 h 3.703125 l -1.125,-3.453125 C 13.132812,-11.171875 13,-11.660156 12.875,-12.171875 c -0.125,-0.519531 -0.234375,-1.066406 -0.328125,-1.640625 -0.09375,0.617188 -0.203125,1.183594 -0.328125,1.703125 -0.117188,0.523437 -0.242188,0.992187 -0.375,1.40625 z M -0.265625,0 5.5,-17.84375 H 19.578125 L 25.375,0 h -9.296875 l -0.6875,-2.3125 H 9.71875 L 8.984375,0 Z m 0,0"
           id="path26635" />
      </g>
      <g
         transform="translate(171.4623,741.44501)"
         style="fill:#211e1e;fill-opacity:1"
         id="use21707">
        <path
           inkscape:connector-curvature="0"
           style="stroke:none"
           d="m 1.5625,0 v -17.84375 h 9.140625 l 3.4375,4.953125 c 0.375,0.5625 0.679687,1.042969 0.921875,1.4375 0.238281,0.386719 0.460938,0.773437 0.671875,1.15625 0,-0.40625 -0.0078,-0.816406 -0.01563,-1.234375 0,-0.425781 0,-0.984375 0,-1.671875 v -4.640625 h 8.6875 V 0 H 16.4375 l -4.734375,-5.9375 c -0.3125,-0.40625 -0.605469,-0.804688 -0.875,-1.203125 -0.261719,-0.40625 -0.496094,-0.804687 -0.703125,-1.203125 0.03906,0.605469 0.07031,1.15625 0.09375,1.65625 0.01953,0.5 0.03125,0.875 0.03125,1.125 V 0 Z m 0,0"
           id="path26631" />
      </g>
      <g
         transform="translate(197.21429,741.44501)"
         style="fill:#211e1e;fill-opacity:1"
         id="use21711">
        <path
           inkscape:connector-curvature="0"
           style="stroke:none"
           d="m 5.734375,0 v -10.765625 h -5.375 V -17.84375 H 20.3125 v 7.078125 h -5.375 V 0 Z m 0,0"
           id="path26627" />
      </g>
      <g
         transform="translate(217.63829,741.44501)"
         style="fill:#211e1e;fill-opacity:1"
         id="use21715">
        <path
           inkscape:connector-curvature="0"
           style="stroke:none"
           d="M 1.578125,0 V -17.84375 H 10.8125 V 0 Z m 0,0"
           id="path26611" />
      </g>
      <g
         transform="translate(230.02229,741.44501)"
         style="fill:#211e1e;fill-opacity:1"
         id="use21717">
        <path
           inkscape:connector-curvature="0"
           style="stroke:none"
           d="m 21.4375,-0.4375 c -1.59375,0.335938 -3.105469,0.578125 -4.53125,0.734375 -1.417969,0.164063 -2.757812,0.25 -4.015625,0.25 -4.042969,0 -7.0625,-0.78125 -9.0625,-2.34375 C 1.835938,-3.367188 0.84375,-5.75 0.84375,-8.9375 c 0,-3.15625 1.003906,-5.503906 3.015625,-7.046875 2.007813,-1.550781 5.0625,-2.328125 9.15625,-2.328125 1.09375,0 2.328125,0.0625 3.703125,0.1875 1.375,0.125 2.945312,0.320312 4.71875,0.578125 v 7.015625 C 20.175781,-10.75 19.03125,-10.910156 18,-11.015625 16.96875,-11.128906 16.054688,-11.1875 15.265625,-11.1875 c -1.648437,0 -2.871094,0.230469 -3.671875,0.6875 -0.804688,0.460938 -1.203125,1.15625 -1.203125,2.09375 0,0.867188 0.34375,1.515625 1.03125,1.953125 0.695313,0.429687 1.738281,0.640625 3.125,0.640625 1.164063,0 2.316406,-0.066406 3.453125,-0.203125 1.144531,-0.132813 2.289062,-0.34375 3.4375,-0.625 z m 0,0"
           id="path26615" />
      </g>
      <g
         transform="translate(252.51028,741.44501)"
         style="fill:#211e1e;fill-opacity:1"
         id="use21719">
        <path
           inkscape:connector-curvature="0"
           style="stroke:none"
           d="m 13.015625,-4.78125 c 0.90625,0 1.609375,-0.328125 2.109375,-0.984375 0.507812,-0.65625 0.765625,-1.570313 0.765625,-2.75 0,-1.238281 -0.242187,-2.164063 -0.71875,-2.78125 -0.480469,-0.625 -1.199219,-0.9375 -2.15625,-0.9375 -0.96875,0 -1.695313,0.3125 -2.171875,0.9375 -0.480469,0.617187 -0.71875,1.542969 -0.71875,2.78125 0,1.1875 0.25,2.109375 0.75,2.765625 0.507812,0.648438 1.222656,0.96875 2.140625,0.96875 z m 0,5.328125 c -4.125,0 -7.1875,-0.773437 -9.1875,-2.328125 C 1.835938,-3.332031 0.84375,-5.71875 0.84375,-8.9375 c 0,-3.195312 0.992188,-5.570312 2.984375,-7.125 1.988281,-1.550781 5.050781,-2.328125 9.1875,-2.328125 4.125,0 7.1875,0.777344 9.1875,2.328125 2,1.554688 3,3.929688 3,7.125 0,3.21875 -1,5.605469 -3,7.15625 -2,1.554688 -5.0625,2.328125 -9.1875,2.328125 z m 0,0"
           id="path26619" />
      </g>
      <g
         transform="translate(278.50229,741.44501)"
         style="fill:#211e1e;fill-opacity:1"
         id="use21721">
        <path
           inkscape:connector-curvature="0"
           style="stroke:none"
           d="M 10.671875,-9.3125 H 12.4375 c 1.207031,0 2.066406,-0.144531 2.578125,-0.4375 0.507813,-0.300781 0.765625,-0.804688 0.765625,-1.515625 0,-0.59375 -0.21875,-1.007813 -0.65625,-1.25 -0.4375,-0.238281 -1.273438,-0.359375 -2.5,-0.359375 H 10.671875 Z M 1.5625,0 v -17.84375 h 17.171875 c 1.96875,0 3.457031,0.429688 4.46875,1.28125 1.007813,0.855469 1.515625,2.109375 1.515625,3.765625 0,1.574219 -0.46875,2.8125 -1.40625,3.71875 -0.929688,0.90625 -2.3125,1.46875 -4.15625,1.6875 L 25.421875,0 H 14.84375 l -3.234375,-4.15625 c -0.125,-0.175781 -0.28125,-0.398438 -0.46875,-0.671875 -0.1875,-0.269531 -0.382813,-0.5625 -0.578125,-0.875 0.03906,0.4375 0.06641,0.882813 0.07813,1.328125 0.01953,0.449219 0.03125,0.890625 0.03125,1.328125 V 0 Z m 0,0"
           id="path26623" />
      </g>
      <g
         transform="translate(304.85428,741.44501)"
         style="fill:#211e1e;fill-opacity:1"
         id="use21725">
        <path
           inkscape:connector-curvature="0"
           style="stroke:none"
           d="m 10.703125,-7.25 h 3.703125 l -1.125,-3.453125 C 13.132812,-11.171875 13,-11.660156 12.875,-12.171875 c -0.125,-0.519531 -0.234375,-1.066406 -0.328125,-1.640625 -0.09375,0.617188 -0.203125,1.183594 -0.328125,1.703125 -0.117188,0.523437 -0.242188,0.992187 -0.375,1.40625 z M -0.265625,0 5.5,-17.84375 H 19.578125 L 25.375,0 h -9.296875 l -0.6875,-2.3125 H 9.71875 L 8.984375,0 Z m 0,0"
           id="path26607" />
      </g>
      <g
         transform="translate(330.05429,741.44501)"
         style="fill:#211e1e;fill-opacity:1"
         id="use21729">
        <path
           inkscape:connector-curvature="0"
           style="stroke:none"
           d="m 1.5625,0 v -17.84375 h 9.140625 l 3.4375,4.953125 c 0.375,0.5625 0.679687,1.042969 0.921875,1.4375 0.238281,0.386719 0.460938,0.773437 0.671875,1.15625 0,-0.40625 -0.0078,-0.816406 -0.01563,-1.234375 0,-0.425781 0,-0.984375 0,-1.671875 v -4.640625 h 8.6875 V 0 H 16.4375 l -4.734375,-5.9375 c -0.3125,-0.40625 -0.605469,-0.804688 -0.875,-1.203125 -0.261719,-0.40625 -0.496094,-0.804687 -0.703125,-1.203125 0.03906,0.605469 0.07031,1.15625 0.09375,1.65625 0.01953,0.5 0.03125,0.875 0.03125,1.125 V 0 Z m 0,0"
           id="path26595" />
      </g>
      <g
         transform="translate(356.02228,741.44501)"
         style="fill:#211e1e;fill-opacity:1"
         id="use21731">
        <path
           inkscape:connector-curvature="0"
           style="stroke:none"
           d=""
           id="path26599" />
      </g>
      <g
         transform="translate(367.01428,741.44501)"
         style="fill:#211e1e;fill-opacity:1"
         id="use21733">
        <path
           inkscape:connector-curvature="0"
           style="stroke:none"
           d="m 1.5625,0 v -17.84375 h 9.140625 l 3.4375,4.953125 c 0.375,0.5625 0.679687,1.042969 0.921875,1.4375 0.238281,0.386719 0.460938,0.773437 0.671875,1.15625 0,-0.40625 -0.0078,-0.816406 -0.01563,-1.234375 0,-0.425781 0,-0.984375 0,-1.671875 v -4.640625 h 8.6875 V 0 H 16.4375 l -4.734375,-5.9375 c -0.3125,-0.40625 -0.605469,-0.804688 -0.875,-1.203125 -0.261719,-0.40625 -0.496094,-0.804687 -0.703125,-1.203125 0.03906,0.605469 0.07031,1.15625 0.09375,1.65625 0.01953,0.5 0.03125,0.875 0.03125,1.125 V 0 Z m 0,0"
           id="path26603" />
      </g>
      <g
         transform="translate(393.10229,741.44501)"
         style="fill:#211e1e;fill-opacity:1"
         id="use21737">
        <path
           inkscape:connector-curvature="0"
           style="stroke:none"
           d="m 10.703125,-7.25 h 3.703125 l -1.125,-3.453125 C 13.132812,-11.171875 13,-11.660156 12.875,-12.171875 c -0.125,-0.519531 -0.234375,-1.066406 -0.328125,-1.640625 -0.09375,0.617188 -0.203125,1.183594 -0.328125,1.703125 -0.117188,0.523437 -0.242188,0.992187 -0.375,1.40625 z M -0.265625,0 5.5,-17.84375 H 19.578125 L 25.375,0 h -9.296875 l -0.6875,-2.3125 H 9.71875 L 8.984375,0 Z m 0,0"
           id="path26591" />
      </g>
      <g
         transform="translate(417.34229,741.44501)"
         style="fill:#211e1e;fill-opacity:1"
         id="use21741">
        <path
           inkscape:connector-curvature="0"
           style="stroke:none"
           d="M 5.3125,0 -0.453125,-17.84375 H 9.03125 l 2.15625,8.125 c 0.132812,0.492188 0.257812,1.039062 0.375,1.640625 0.125,0.59375 0.253906,1.277344 0.390625,2.046875 0.08203,-0.625 0.179687,-1.242188 0.296875,-1.859375 0.113281,-0.625 0.242188,-1.234375 0.390625,-1.828125 l 2.09375,-8.125 H 24.03125 L 18.359375,0 Z m 0,0"
           id="path26587" />
      </g>
      <g
         transform="translate(442.66229,741.44501)"
         style="fill:#211e1e;fill-opacity:1"
         id="use21745">
        <path
           inkscape:connector-curvature="0"
           style="stroke:none"
           d="M 6.296875,0 V -5.203125 L -1.484375,-17.84375 H 8.65625 l 1.546875,3.4375 c 0.15625,0.367188 0.300781,0.742188 0.4375,1.125 0.144531,0.386719 0.28125,0.789062 0.40625,1.203125 0.15625,-0.613281 0.289063,-1.125 0.40625,-1.53125 0.125,-0.40625 0.21875,-0.675781 0.28125,-0.8125 l 1.46875,-3.421875 h 9.75 l -7.5625,12.5625 V 0 Z m 0,0"
           id="path26583" />
      </g>
    </g>
  </g>
</svg>
